<svg xmlns="http://www.w3.org/2000/svg" xmlns:xlink="http://www.w3.org/1999/xlink" contentStyleType="text/css" data-diagram-type="SEQUENCE" height="1049px" preserveAspectRatio="none" style="width:1364px;height:1049px;background:#1B1B1B;" version="1.1" viewBox="0 0 1364 1049" width="1364px" zoomAndPan="magnify"><defs/><g><rect fill="#1B1B1B" height="1049" style="stroke:none;stroke-width:1;" width="1364" x="0" y="0"/><g class="participant-lifeline" data-entity-uid="part1" data-qualified-name="u1" id="part1-lifeline"><g><title>User</title><rect fill="#000000" fill-opacity="0.00000" height="887.7188" width="8" x="19.9551" y="81.2969"/><line style="stroke:#E7E7E7;stroke-width:0.5;stroke-dasharray:5,5;" x1="23" x2="23" y1="81.2969" y2="969.0156"/></g></g><g class="participant-lifeline" data-entity-uid="part2" data-qualified-name="nwc" id="part2-lifeline"><g><title>Nwc</title><rect fill="#000000" fill-opacity="0.00000" height="887.7188" width="8" x="114.834" y="81.2969"/><line style="stroke:#E7E7E7;stroke-width:0.5;stroke-dasharray:5,5;" x1="117.853" x2="117.853" y1="81.2969" y2="969.0156"/></g></g><g class="participant-lifeline" data-entity-uid="part3" data-qualified-name="nwconcpy" id="part3-lifeline"><g><title>Nwc-concat</title><rect fill="#000000" fill-opacity="0.00000" height="887.7188" width="8" x="186.6016" y="81.2969"/><line style="stroke:#E7E7E7;stroke-width:0.5;stroke-dasharray:5,5;" x1="189.8149" x2="189.8149" y1="81.2969" y2="969.0156"/></g></g><g class="participant-lifeline" data-entity-uid="part4" data-qualified-name="nwconvpy" id="part4-lifeline"><g><title>Nwc-convert</title><rect fill="#000000" fill-opacity="0.00000" height="887.7188" width="8" x="287.3638" y="81.2969"/><line style="stroke:#E7E7E7;stroke-width:0.5;stroke-dasharray:5,5;" x1="290.3882" x2="290.3882" y1="81.2969" y2="969.0156"/></g></g><g class="participant-lifeline" data-entity-uid="part5" data-qualified-name="nwconvexe" id="part5-lifeline"><g><title>Nwc-conv</title><rect fill="#000000" fill-opacity="0.00000" height="887.7188" width="8" x="409.6494" y="81.2969"/><line style="stroke:#E7E7E7;stroke-width:0.5;stroke-dasharray:5,5;" x1="413.603" x2="413.603" y1="81.2969" y2="969.0156"/></g></g><g class="participant-lifeline" data-entity-uid="part6" data-qualified-name="fluid" id="part6-lifeline"><g><title>Fluidsynth</title><rect fill="#000000" fill-opacity="0.00000" height="887.7188" width="8" x="495.8989" y="81.2969"/><line style="stroke:#E7E7E7;stroke-width:0.5;stroke-dasharray:5,5;" x1="499.6958" x2="499.6958" y1="81.2969" y2="969.0156"/></g></g><g class="participant-lifeline" data-entity-uid="part7" data-qualified-name="ffmpeg" id="part7-lifeline"><g><title>Ffmpeg</title><rect fill="#000000" fill-opacity="0.00000" height="887.7188" width="8" x="574.605" y="81.2969"/><line style="stroke:#E7E7E7;stroke-width:0.5;stroke-dasharray:5,5;" x1="578.1021" x2="578.1021" y1="81.2969" y2="969.0156"/></g></g><g class="participant-lifeline" data-entity-uid="part8" data-qualified-name="ltgenerate" id="part8-lifeline"><g><title>Lt-generate</title><rect fill="#000000" fill-opacity="0.00000" height="887.7188" width="8" x="657.9902" y="81.2969"/><line style="stroke:#E7E7E7;stroke-width:0.5;stroke-dasharray:5,5;" x1="661.1079" x2="661.1079" y1="81.2969" y2="969.0156"/></g></g><g class="participant-lifeline" data-entity-uid="part9" data-qualified-name="ltupload" id="part9-lifeline"><g><title>Lt-upload</title><rect fill="#000000" fill-opacity="0.00000" height="887.7188" width="8" x="747.8833" y="81.2969"/><line style="stroke:#E7E7E7;stroke-width:0.5;stroke-dasharray:5,5;" x1="751.8726" x2="751.8726" y1="81.2969" y2="969.0156"/></g></g><g class="participant-lifeline" data-entity-uid="part10" data-qualified-name="tenacity" id="part10-lifeline"><g><title>Tenacity</title><rect fill="#000000" fill-opacity="0.00000" height="887.7188" width="8" x="826.8833" y="81.2969"/><line style="stroke:#E7E7E7;stroke-width:0.5;stroke-dasharray:5,5;" x1="829.894" x2="829.894" y1="81.2969" y2="969.0156"/></g></g><g class="participant-lifeline" data-entity-uid="part11" data-qualified-name="repos" id="part11-lifeline"><g><title>git</title><rect fill="#000000" fill-opacity="0.00000" height="887.7188" width="8" x="887.8726" y="81.2969"/><line style="stroke:#E7E7E7;stroke-width:0.5;stroke-dasharray:5,5;" x1="891.8726" x2="891.8726" y1="81.2969" y2="969.0156"/></g></g><g class="participant-lifeline" data-entity-uid="part12" data-qualified-name="audio" id="part12-lifeline"><g><title>audio folder</title><rect fill="#000000" fill-opacity="0.00000" height="887.7188" width="8" x="984.5532" y="81.2969"/><line style="stroke:#E7E7E7;stroke-width:0.5;stroke-dasharray:5,5;" x1="987.6113" x2="987.6113" y1="81.2969" y2="969.0156"/></g></g><g class="participant-lifeline" data-entity-uid="part13" data-qualified-name="build" id="part13-lifeline"><g><title>build folder</title><rect fill="#000000" fill-opacity="0.00000" height="887.7188" width="8" x="1160.4663" y="81.2969"/><line style="stroke:#E7E7E7;stroke-width:0.5;stroke-dasharray:5,5;" x1="1163.7085" x2="1163.7085" y1="81.2969" y2="969.0156"/></g></g><g class="participant-lifeline" data-entity-uid="part14" data-qualified-name="dist" id="part14-lifeline"><g><title>dist folder</title><rect fill="#000000" fill-opacity="0.00000" height="887.7188" width="8" x="1251.5488" y="81.2969"/><line style="stroke:#E7E7E7;stroke-width:0.5;stroke-dasharray:5,5;" x1="1255.2241" x2="1255.2241" y1="81.2969" y2="969.0156"/></g></g><g class="participant-lifeline" data-entity-uid="part15" data-qualified-name="pdrive" id="part15-lifeline"><g><title>PDrive</title><rect fill="#000000" fill-opacity="0.00000" height="887.7188" width="8" x="1325.7568" y="81.2969"/><line style="stroke:#E7E7E7;stroke-width:0.5;stroke-dasharray:5,5;" x1="1328.8735" x2="1328.8735" y1="81.2969" y2="969.0156"/></g></g><g class="participant participant-head" data-entity-uid="part1" data-qualified-name="u1" id="part1-head"><text fill="#FFFFFF" font-family="sans-serif" font-size="14" lengthAdjust="spacing" textLength="31.9102" x="5" y="77.9951">User</text><ellipse cx="23.9551" cy="13.5" fill="#222222" rx="8" ry="8" style="stroke:#E7E7E7;stroke-width:0.5;"/><path d="M23.9551,21.5 L23.9551,48.5 M10.9551,29.5 L36.9551,29.5 M23.9551,48.5 L10.9551,63.5 M23.9551,48.5 L36.9551,63.5" fill="none" style="stroke:#E7E7E7;stroke-width:0.5;"/></g><g class="participant participant-tail" data-entity-uid="part1" data-qualified-name="u1" id="part1-tail"><text fill="#FFFFFF" font-family="sans-serif" font-size="14" lengthAdjust="spacing" textLength="31.9102" x="5" y="981.0107">User</text><ellipse cx="23.9551" cy="992.8125" fill="#222222" rx="8" ry="8" style="stroke:#E7E7E7;stroke-width:0.5;"/><path d="M23.9551,1000.8125 L23.9551,1027.8125 M10.9551,1008.8125 L36.9551,1008.8125 M23.9551,1027.8125 L10.9551,1042.8125 M23.9551,1027.8125 L36.9551,1042.8125" fill="none" style="stroke:#E7E7E7;stroke-width:0.5;"/></g><g class="participant participant-head" data-entity-uid="part2" data-qualified-name="nwc" id="part2-head"><text fill="#FFFFFF" font-family="sans-serif" font-size="14" lengthAdjust="spacing" textLength="29.6201" x="101.0239" y="61.6982">Nwc</text><text fill="#FFFFFF" font-family="sans-serif" font-size="14" lengthAdjust="spacing" textLength="29.9619" x="100.853" y="77.9951">.exe</text><ellipse cx="118.834" cy="32.7031" fill="#222222" rx="12" ry="12" style="stroke:#E7E7E7;stroke-width:0.5;"/><polygon fill="#E7E7E7" points="114.834,20.7031,120.834,15.7031,118.834,20.7031,120.834,25.7031,114.834,20.7031" style="stroke:#E7E7E7;stroke-width:1;"/></g><g class="participant participant-tail" data-entity-uid="part2" data-qualified-name="nwc" id="part2-tail"><text fill="#FFFFFF" font-family="sans-serif" font-size="14" lengthAdjust="spacing" textLength="29.6201" x="101.0239" y="981.0107">Nwc</text><text fill="#FFFFFF" font-family="sans-serif" font-size="14" lengthAdjust="spacing" textLength="29.9619" x="100.853" y="997.3076">.exe</text><ellipse cx="118.834" cy="1016.6094" fill="#222222" rx="12" ry="12" style="stroke:#E7E7E7;stroke-width:0.5;"/><polygon fill="#E7E7E7" points="114.834,1004.6094,120.834,999.6094,118.834,1004.6094,120.834,1009.6094,114.834,1004.6094" style="stroke:#E7E7E7;stroke-width:1;"/></g><g class="participant participant-head" data-entity-uid="part3" data-qualified-name="nwconcpy" id="part3-head"><text fill="#FFFFFF" font-family="sans-serif" font-size="14" lengthAdjust="spacing" textLength="81.5732" x="146.8149" y="61.6982">Nwc-concat</text><text fill="#FFFFFF" font-family="sans-serif" font-size="14" lengthAdjust="spacing" textLength="21.6221" x="176.7905" y="77.9951">.py</text><ellipse cx="190.6016" cy="32.7031" fill="#222222" rx="12" ry="12" style="stroke:#E7E7E7;stroke-width:0.5;"/><polygon fill="#E7E7E7" points="186.6016,20.7031,192.6016,15.7031,190.6016,20.7031,192.6016,25.7031,186.6016,20.7031" style="stroke:#E7E7E7;stroke-width:1;"/></g><g class="participant participant-tail" data-entity-uid="part3" data-qualified-name="nwconcpy" id="part3-tail"><text fill="#FFFFFF" font-family="sans-serif" font-size="14" lengthAdjust="spacing" textLength="81.5732" x="146.8149" y="981.0107">Nwc-concat</text><text fill="#FFFFFF" font-family="sans-serif" font-size="14" lengthAdjust="spacing" textLength="21.6221" x="176.7905" y="997.3076">.py</text><ellipse cx="190.6016" cy="1016.6094" fill="#222222" rx="12" ry="12" style="stroke:#E7E7E7;stroke-width:0.5;"/><polygon fill="#E7E7E7" points="186.6016,1004.6094,192.6016,999.6094,190.6016,1004.6094,192.6016,1009.6094,186.6016,1004.6094" style="stroke:#E7E7E7;stroke-width:1;"/></g><g class="participant participant-head" data-entity-uid="part4" data-qualified-name="nwconvpy" id="part4-head"><text fill="#FFFFFF" font-family="sans-serif" font-size="14" lengthAdjust="spacing" textLength="87.9512" x="244.3882" y="61.6982">Nwc-convert</text><text fill="#FFFFFF" font-family="sans-serif" font-size="14" lengthAdjust="spacing" textLength="21.6221" x="277.5527" y="77.9951">.py</text><ellipse cx="291.3638" cy="32.7031" fill="#222222" rx="12" ry="12" style="stroke:#E7E7E7;stroke-width:0.5;"/><polygon fill="#E7E7E7" points="287.3638,20.7031,293.3638,15.7031,291.3638,20.7031,293.3638,25.7031,287.3638,20.7031" style="stroke:#E7E7E7;stroke-width:1;"/></g><g class="participant participant-tail" data-entity-uid="part4" data-qualified-name="nwconvpy" id="part4-tail"><text fill="#FFFFFF" font-family="sans-serif" font-size="14" lengthAdjust="spacing" textLength="87.9512" x="244.3882" y="981.0107">Nwc-convert</text><text fill="#FFFFFF" font-family="sans-serif" font-size="14" lengthAdjust="spacing" textLength="21.6221" x="277.5527" y="997.3076">.py</text><ellipse cx="291.3638" cy="1016.6094" fill="#222222" rx="12" ry="12" style="stroke:#E7E7E7;stroke-width:0.5;"/><polygon fill="#E7E7E7" points="287.3638,1004.6094,293.3638,999.6094,291.3638,1004.6094,293.3638,1009.6094,287.3638,1004.6094" style="stroke:#E7E7E7;stroke-width:1;"/></g><g class="participant participant-head" data-entity-uid="part5" data-qualified-name="nwconvexe" id="part5-head"><text fill="#FFFFFF" font-family="sans-serif" font-size="14" lengthAdjust="spacing" textLength="68.0928" x="376.603" y="61.6982">Nwc-conv</text><text fill="#FFFFFF" font-family="sans-serif" font-size="14" lengthAdjust="spacing" textLength="29.9619" x="395.6685" y="77.9951">.exe</text><ellipse cx="413.6494" cy="32.7031" fill="#222222" rx="12" ry="12" style="stroke:#E7E7E7;stroke-width:0.5;"/><polygon fill="#E7E7E7" points="409.6494,20.7031,415.6494,15.7031,413.6494,20.7031,415.6494,25.7031,409.6494,20.7031" style="stroke:#E7E7E7;stroke-width:1;"/></g><g class="participant participant-tail" data-entity-uid="part5" data-qualified-name="nwconvexe" id="part5-tail"><text fill="#FFFFFF" font-family="sans-serif" font-size="14" lengthAdjust="spacing" textLength="68.0928" x="376.603" y="981.0107">Nwc-conv</text><text fill="#FFFFFF" font-family="sans-serif" font-size="14" lengthAdjust="spacing" textLength="29.9619" x="395.6685" y="997.3076">.exe</text><ellipse cx="413.6494" cy="1016.6094" fill="#222222" rx="12" ry="12" style="stroke:#E7E7E7;stroke-width:0.5;"/><polygon fill="#E7E7E7" points="409.6494,1004.6094,415.6494,999.6094,413.6494,1004.6094,415.6494,1009.6094,409.6494,1004.6094" style="stroke:#E7E7E7;stroke-width:1;"/></g><g class="participant participant-head" data-entity-uid="part6" data-qualified-name="fluid" id="part6-head"><text fill="#FFFFFF" font-family="sans-serif" font-size="14" lengthAdjust="spacing" textLength="72.4063" x="460.6958" y="61.6982">Fluidsynth</text><text fill="#FFFFFF" font-family="sans-serif" font-size="14" lengthAdjust="spacing" textLength="29.9619" x="481.918" y="77.9951">.exe</text><ellipse cx="499.8989" cy="32.7031" fill="#222222" rx="12" ry="12" style="stroke:#E7E7E7;stroke-width:0.5;"/><polygon fill="#E7E7E7" points="495.8989,20.7031,501.8989,15.7031,499.8989,20.7031,501.8989,25.7031,495.8989,20.7031" style="stroke:#E7E7E7;stroke-width:1;"/></g><g class="participant participant-tail" data-entity-uid="part6" data-qualified-name="fluid" id="part6-tail"><text fill="#FFFFFF" font-family="sans-serif" font-size="14" lengthAdjust="spacing" textLength="72.4063" x="460.6958" y="981.0107">Fluidsynth</text><text fill="#FFFFFF" font-family="sans-serif" font-size="14" lengthAdjust="spacing" textLength="29.9619" x="481.918" y="997.3076">.exe</text><ellipse cx="499.8989" cy="1016.6094" fill="#222222" rx="12" ry="12" style="stroke:#E7E7E7;stroke-width:0.5;"/><polygon fill="#E7E7E7" points="495.8989,1004.6094,501.8989,999.6094,499.8989,1004.6094,501.8989,1009.6094,495.8989,1004.6094" style="stroke:#E7E7E7;stroke-width:1;"/></g><g class="participant participant-head" data-entity-uid="part7" data-qualified-name="ffmpeg" id="part7-head"><text fill="#FFFFFF" font-family="sans-serif" font-size="14" lengthAdjust="spacing" textLength="53.0059" x="549.1021" y="61.6982">Ffmpeg</text><text fill="#FFFFFF" font-family="sans-serif" font-size="14" lengthAdjust="spacing" textLength="29.9619" x="560.624" y="77.9951">.exe</text><ellipse cx="578.605" cy="32.7031" fill="#222222" rx="12" ry="12" style="stroke:#E7E7E7;stroke-width:0.5;"/><polygon fill="#E7E7E7" points="574.605,20.7031,580.605,15.7031,578.605,20.7031,580.605,25.7031,574.605,20.7031" style="stroke:#E7E7E7;stroke-width:1;"/></g><g class="participant participant-tail" data-entity-uid="part7" data-qualified-name="ffmpeg" id="part7-tail"><text fill="#FFFFFF" font-family="sans-serif" font-size="14" lengthAdjust="spacing" textLength="53.0059" x="549.1021" y="981.0107">Ffmpeg</text><text fill="#FFFFFF" font-family="sans-serif" font-size="14" lengthAdjust="spacing" textLength="29.9619" x="560.624" y="997.3076">.exe</text><ellipse cx="578.605" cy="1016.6094" fill="#222222" rx="12" ry="12" style="stroke:#E7E7E7;stroke-width:0.5;"/><polygon fill="#E7E7E7" points="574.605,1004.6094,580.605,999.6094,578.605,1004.6094,580.605,1009.6094,574.605,1004.6094" style="stroke:#E7E7E7;stroke-width:1;"/></g><g class="participant participant-head" data-entity-uid="part8" data-qualified-name="ltgenerate" id="part8-head"><text fill="#FFFFFF" font-family="sans-serif" font-size="14" lengthAdjust="spacing" textLength="81.7646" x="618.1079" y="61.6982">Lt-generate</text><text fill="#FFFFFF" font-family="sans-serif" font-size="14" lengthAdjust="spacing" textLength="21.6221" x="648.1792" y="77.9951">.py</text><ellipse cx="661.9902" cy="32.7031" fill="#222222" rx="12" ry="12" style="stroke:#E7E7E7;stroke-width:0.5;"/><polygon fill="#E7E7E7" points="657.9902,20.7031,663.9902,15.7031,661.9902,20.7031,663.9902,25.7031,657.9902,20.7031" style="stroke:#E7E7E7;stroke-width:1;"/></g><g class="participant participant-tail" data-entity-uid="part8" data-qualified-name="ltgenerate" id="part8-tail"><text fill="#FFFFFF" font-family="sans-serif" font-size="14" lengthAdjust="spacing" textLength="81.7646" x="618.1079" y="981.0107">Lt-generate</text><text fill="#FFFFFF" font-family="sans-serif" font-size="14" lengthAdjust="spacing" textLength="21.6221" x="648.1792" y="997.3076">.py</text><ellipse cx="661.9902" cy="1016.6094" fill="#222222" rx="12" ry="12" style="stroke:#E7E7E7;stroke-width:0.5;"/><polygon fill="#E7E7E7" points="657.9902,1004.6094,663.9902,999.6094,661.9902,1004.6094,663.9902,1009.6094,657.9902,1004.6094" style="stroke:#E7E7E7;stroke-width:1;"/></g><g class="participant participant-head" data-entity-uid="part9" data-qualified-name="ltupload" id="part9-head"><text fill="#FFFFFF" font-family="sans-serif" font-size="14" lengthAdjust="spacing" textLength="66.0215" x="715.8726" y="61.6982">Lt-upload</text><text fill="#FFFFFF" font-family="sans-serif" font-size="14" lengthAdjust="spacing" textLength="20.6309" x="738.5679" y="77.9951">.ps</text><ellipse cx="751.8833" cy="32.7031" fill="#222222" rx="12" ry="12" style="stroke:#E7E7E7;stroke-width:0.5;"/><polygon fill="#E7E7E7" points="747.8833,20.7031,753.8833,15.7031,751.8833,20.7031,753.8833,25.7031,747.8833,20.7031" style="stroke:#E7E7E7;stroke-width:1;"/></g><g class="participant participant-tail" data-entity-uid="part9" data-qualified-name="ltupload" id="part9-tail"><text fill="#FFFFFF" font-family="sans-serif" font-size="14" lengthAdjust="spacing" textLength="66.0215" x="715.8726" y="981.0107">Lt-upload</text><text fill="#FFFFFF" font-family="sans-serif" font-size="14" lengthAdjust="spacing" textLength="20.6309" x="738.5679" y="997.3076">.ps</text><ellipse cx="751.8833" cy="1016.6094" fill="#222222" rx="12" ry="12" style="stroke:#E7E7E7;stroke-width:0.5;"/><polygon fill="#E7E7E7" points="747.8833,1004.6094,753.8833,999.6094,751.8833,1004.6094,753.8833,1009.6094,747.8833,1004.6094" style="stroke:#E7E7E7;stroke-width:1;"/></g><g class="participant participant-head" data-entity-uid="part10" data-qualified-name="tenacity" id="part10-head"><text fill="#FFFFFF" font-family="sans-serif" font-size="14" lengthAdjust="spacing" textLength="59.9785" x="797.894" y="61.6982">Tenacity</text><text fill="#FFFFFF" font-family="sans-serif" font-size="14" lengthAdjust="spacing" textLength="29.9619" x="812.9023" y="77.9951">.exe</text><ellipse cx="830.8833" cy="32.7031" fill="#222222" rx="12" ry="12" style="stroke:#E7E7E7;stroke-width:0.5;"/><polygon fill="#E7E7E7" points="826.8833,20.7031,832.8833,15.7031,830.8833,20.7031,832.8833,25.7031,826.8833,20.7031" style="stroke:#E7E7E7;stroke-width:1;"/></g><g class="participant participant-tail" data-entity-uid="part10" data-qualified-name="tenacity" id="part10-tail"><text fill="#FFFFFF" font-family="sans-serif" font-size="14" lengthAdjust="spacing" textLength="59.9785" x="797.894" y="981.0107">Tenacity</text><text fill="#FFFFFF" font-family="sans-serif" font-size="14" lengthAdjust="spacing" textLength="29.9619" x="812.9023" y="997.3076">.exe</text><ellipse cx="830.8833" cy="1016.6094" fill="#222222" rx="12" ry="12" style="stroke:#E7E7E7;stroke-width:0.5;"/><polygon fill="#E7E7E7" points="826.8833,1004.6094,832.8833,999.6094,830.8833,1004.6094,832.8833,1009.6094,826.8833,1004.6094" style="stroke:#E7E7E7;stroke-width:1;"/></g><g class="participant participant-head" data-entity-uid="part11" data-qualified-name="repos" id="part11-head"><text fill="#FFFFFF" font-family="sans-serif" font-size="14" lengthAdjust="spacing" textLength="18.2656" x="879.7397" y="77.9951">git</text><path d="M873.8726,29 C873.8726,19 891.8726,19 891.8726,19 C891.8726,19 909.8726,19 909.8726,29 L909.8726,55 C909.8726,65 891.8726,65 891.8726,65 C891.8726,65 873.8726,65 873.8726,55 L873.8726,29" fill="#222222" style="stroke:#E7E7E7;stroke-width:0.5;"/><path d="M873.8726,29 C873.8726,39 891.8726,39 891.8726,39 C891.8726,39 909.8726,39 909.8726,29" fill="none" style="stroke:#E7E7E7;stroke-width:0.5;"/></g><g class="participant participant-tail" data-entity-uid="part11" data-qualified-name="repos" id="part11-tail"><text fill="#FFFFFF" font-family="sans-serif" font-size="14" lengthAdjust="spacing" textLength="18.2656" x="879.7397" y="981.0107">git</text><path d="M873.8726,994.3125 C873.8726,984.3125 891.8726,984.3125 891.8726,984.3125 C891.8726,984.3125 909.8726,984.3125 909.8726,994.3125 L909.8726,1020.3125 C909.8726,1030.3125 891.8726,1030.3125 891.8726,1030.3125 C891.8726,1030.3125 873.8726,1030.3125 873.8726,1020.3125 L873.8726,994.3125" fill="#222222" style="stroke:#E7E7E7;stroke-width:0.5;"/><path d="M873.8726,994.3125 C873.8726,1004.3125 891.8726,1004.3125 891.8726,1004.3125 C891.8726,1004.3125 909.8726,1004.3125 909.8726,994.3125" fill="none" style="stroke:#E7E7E7;stroke-width:0.5;"/></g><g class="participant participant-head" data-entity-uid="part12" data-qualified-name="audio" id="part12-head"><text fill="#FFFFFF" font-family="sans-serif" font-size="14" lengthAdjust="spacing" textLength="83.8838" x="943.6113" y="77.9951">audio folder</text><path d="M970.5532,29 C970.5532,19 988.5532,19 988.5532,19 C988.5532,19 1006.5532,19 1006.5532,29 L1006.5532,55 C1006.5532,65 988.5532,65 988.5532,65 C988.5532,65 970.5532,65 970.5532,55 L970.5532,29" fill="#222222" style="stroke:#E7E7E7;stroke-width:0.5;"/><path d="M970.5532,29 C970.5532,39 988.5532,39 988.5532,39 C988.5532,39 1006.5532,39 1006.5532,29" fill="none" style="stroke:#E7E7E7;stroke-width:0.5;"/></g><g class="participant participant-tail" data-entity-uid="part12" data-qualified-name="audio" id="part12-tail"><text fill="#FFFFFF" font-family="sans-serif" font-size="14" lengthAdjust="spacing" textLength="83.8838" x="943.6113" y="981.0107">audio folder</text><path d="M970.5532,994.3125 C970.5532,984.3125 988.5532,984.3125 988.5532,984.3125 C988.5532,984.3125 1006.5532,984.3125 1006.5532,994.3125 L1006.5532,1020.3125 C1006.5532,1030.3125 988.5532,1030.3125 988.5532,1030.3125 C988.5532,1030.3125 970.5532,1030.3125 970.5532,1020.3125 L970.5532,994.3125" fill="#222222" style="stroke:#E7E7E7;stroke-width:0.5;"/><path d="M970.5532,994.3125 C970.5532,1004.3125 988.5532,1004.3125 988.5532,1004.3125 C988.5532,1004.3125 1006.5532,1004.3125 1006.5532,994.3125" fill="none" style="stroke:#E7E7E7;stroke-width:0.5;"/></g><g class="participant participant-head" data-entity-uid="part13" data-qualified-name="build" id="part13-head"><text fill="#FFFFFF" font-family="sans-serif" font-size="14" lengthAdjust="spacing" textLength="79.5156" x="1121.7085" y="77.9951">build folder</text><path d="M1146.4663,29 C1146.4663,19 1164.4663,19 1164.4663,19 C1164.4663,19 1182.4663,19 1182.4663,29 L1182.4663,55 C1182.4663,65 1164.4663,65 1164.4663,65 C1164.4663,65 1146.4663,65 1146.4663,55 L1146.4663,29" fill="#222222" style="stroke:#E7E7E7;stroke-width:0.5;"/><path d="M1146.4663,29 C1146.4663,39 1164.4663,39 1164.4663,39 C1164.4663,39 1182.4663,39 1182.4663,29" fill="none" style="stroke:#E7E7E7;stroke-width:0.5;"/></g><g class="participant participant-tail" data-entity-uid="part13" data-qualified-name="build" id="part13-tail"><text fill="#FFFFFF" font-family="sans-serif" font-size="14" lengthAdjust="spacing" textLength="79.5156" x="1121.7085" y="981.0107">build folder</text><path d="M1146.4663,994.3125 C1146.4663,984.3125 1164.4663,984.3125 1164.4663,984.3125 C1164.4663,984.3125 1182.4663,984.3125 1182.4663,994.3125 L1182.4663,1020.3125 C1182.4663,1030.3125 1164.4663,1030.3125 1164.4663,1030.3125 C1164.4663,1030.3125 1146.4663,1030.3125 1146.4663,1020.3125 L1146.4663,994.3125" fill="#222222" style="stroke:#E7E7E7;stroke-width:0.5;"/><path d="M1146.4663,994.3125 C1146.4663,1004.3125 1164.4663,1004.3125 1164.4663,1004.3125 C1164.4663,1004.3125 1182.4663,1004.3125 1182.4663,994.3125" fill="none" style="stroke:#E7E7E7;stroke-width:0.5;"/></g><g class="participant participant-head" data-entity-uid="part14" data-qualified-name="dist" id="part14-head"><text fill="#FFFFFF" font-family="sans-serif" font-size="14" lengthAdjust="spacing" textLength="70.6494" x="1217.2241" y="77.9951">dist folder</text><path d="M1237.5488,29 C1237.5488,19 1255.5488,19 1255.5488,19 C1255.5488,19 1273.5488,19 1273.5488,29 L1273.5488,55 C1273.5488,65 1255.5488,65 1255.5488,65 C1255.5488,65 1237.5488,65 1237.5488,55 L1237.5488,29" fill="#222222" style="stroke:#E7E7E7;stroke-width:0.5;"/><path d="M1237.5488,29 C1237.5488,39 1255.5488,39 1255.5488,39 C1255.5488,39 1273.5488,39 1273.5488,29" fill="none" style="stroke:#E7E7E7;stroke-width:0.5;"/></g><g class="participant participant-tail" data-entity-uid="part14" data-qualified-name="dist" id="part14-tail"><text fill="#FFFFFF" font-family="sans-serif" font-size="14" lengthAdjust="spacing" textLength="70.6494" x="1217.2241" y="981.0107">dist folder</text><path d="M1237.5488,994.3125 C1237.5488,984.3125 1255.5488,984.3125 1255.5488,984.3125 C1255.5488,984.3125 1273.5488,984.3125 1273.5488,994.3125 L1273.5488,1020.3125 C1273.5488,1030.3125 1255.5488,1030.3125 1255.5488,1030.3125 C1255.5488,1030.3125 1237.5488,1030.3125 1237.5488,1020.3125 L1237.5488,994.3125" fill="#222222" style="stroke:#E7E7E7;stroke-width:0.5;"/><path d="M1237.5488,994.3125 C1237.5488,1004.3125 1255.5488,1004.3125 1255.5488,1004.3125 C1255.5488,1004.3125 1273.5488,1004.3125 1273.5488,994.3125" fill="none" style="stroke:#E7E7E7;stroke-width:0.5;"/></g><g class="participant participant-head" data-entity-uid="part15" data-qualified-name="pdrive" id="part15-head"><text fill="#FFFFFF" font-family="sans-serif" font-size="14" lengthAdjust="spacing" textLength="45.7666" x="1303.8735" y="77.9951">PDrive</text><path d="M1311.7568,29 C1311.7568,19 1329.7568,19 1329.7568,19 C1329.7568,19 1347.7568,19 1347.7568,29 L1347.7568,55 C1347.7568,65 1329.7568,65 1329.7568,65 C1329.7568,65 1311.7568,65 1311.7568,55 L1311.7568,29" fill="#222222" style="stroke:#E7E7E7;stroke-width:0.5;"/><path d="M1311.7568,29 C1311.7568,39 1329.7568,39 1329.7568,39 C1329.7568,39 1347.7568,39 1347.7568,29" fill="none" style="stroke:#E7E7E7;stroke-width:0.5;"/></g><g class="participant participant-tail" data-entity-uid="part15" data-qualified-name="pdrive" id="part15-tail"><text fill="#FFFFFF" font-family="sans-serif" font-size="14" lengthAdjust="spacing" textLength="45.7666" x="1303.8735" y="981.0107">PDrive</text><path d="M1311.7568,994.3125 C1311.7568,984.3125 1329.7568,984.3125 1329.7568,984.3125 C1329.7568,984.3125 1347.7568,984.3125 1347.7568,994.3125 L1347.7568,1020.3125 C1347.7568,1030.3125 1329.7568,1030.3125 1329.7568,1030.3125 C1329.7568,1030.3125 1311.7568,1030.3125 1311.7568,1020.3125 L1311.7568,994.3125" fill="#222222" style="stroke:#E7E7E7;stroke-width:0.5;"/><path d="M1311.7568,994.3125 C1311.7568,1004.3125 1329.7568,1004.3125 1329.7568,1004.3125 C1329.7568,1004.3125 1347.7568,1004.3125 1347.7568,994.3125" fill="none" style="stroke:#E7E7E7;stroke-width:0.5;"/></g><g class="message" data-entity-1="part1" data-entity-2="part2" id="msg1"><polygon fill="#E7E7E7" points="106.834,108.4297,116.834,112.4297,106.834,116.4297,110.834,112.4297" style="stroke:#E7E7E7;stroke-width:1;"/><line style="stroke:#E7E7E7;stroke-width:1;" x1="23.9551" x2="112.834" y1="112.4297" y2="112.4297"/><text fill="#FFFFFF" font-family="sans-serif" font-size="13" font-weight="bold" lengthAdjust="spacing" textLength="9.0454" x="30.9551" y="107.3638">1</text><text fill="#FFFFFF" font-family="sans-serif" font-size="13" lengthAdjust="spacing" textLength="57.8335" x="44.0005" y="107.3638">start GUI</text></g><g class="message" data-entity-1="part1" data-entity-2="part11" id="msg2"><polygon fill="#E7E7E7" points="879.8726,137.5625,889.8726,141.5625,879.8726,145.5625,883.8726,141.5625" style="stroke:#E7E7E7;stroke-width:1;"/><line style="stroke:#E7E7E7;stroke-width:1;" x1="23.9551" x2="885.8726" y1="141.5625" y2="141.5625"/><text fill="#FFFFFF" font-family="sans-serif" font-size="13" font-weight="bold" lengthAdjust="spacing" textLength="9.0454" x="30.9551" y="136.4966">2</text><text fill="#FFFFFF" font-family="sans-serif" font-size="13" lengthAdjust="spacing" textLength="204.3882" x="44.0005" y="136.4966">(manual) create multi .nwctxt's</text></g><g class="message" data-entity-1="part1" data-entity-2="part3" id="msg3"><polygon fill="#008000" points="178.6016,166.6953,188.6016,170.6953,178.6016,174.6953,182.6016,170.6953" style="stroke:#008000;stroke-width:1;"/><line style="stroke:#008000;stroke-width:1;" x1="23.9551" x2="184.6016" y1="170.6953" y2="170.6953"/><text fill="#FFFFFF" font-family="sans-serif" font-size="13" font-weight="bold" lengthAdjust="spacing" textLength="9.0454" x="30.9551" y="165.6294">3</text><text fill="#FFFFFF" font-family="sans-serif" font-size="13" lengthAdjust="spacing" textLength="62.1816" x="44.0005" y="165.6294">run script</text></g><g class="message" data-entity-1="part3" data-entity-2="part11" id="msg4"><polygon fill="#008000" points="879.8726,195.8281,889.8726,199.8281,879.8726,203.8281,883.8726,199.8281" style="stroke:#008000;stroke-width:1;"/><line style="stroke:#008000;stroke-width:1;" x1="190.6016" x2="885.8726" y1="199.8281" y2="199.8281"/><text fill="#FFFFFF" font-family="sans-serif" font-size="13" font-weight="bold" lengthAdjust="spacing" textLength="9.0454" x="197.6016" y="194.7622">4</text><text fill="#FFFFFF" font-family="sans-serif" font-size="13" lengthAdjust="spacing" textLength="98.3315" x="210.647" y="194.7622">update lied.tex</text></g><g class="message" data-entity-1="part3" data-entity-2="part12" id="msg5"><polygon fill="#008000" points="976.5532,224.9609,986.5532,228.9609,976.5532,232.9609,980.5532,228.9609" style="stroke:#008000;stroke-width:1;"/><line style="stroke:#008000;stroke-width:1;" x1="190.6016" x2="982.5532" y1="228.9609" y2="228.9609"/><text fill="#FFFFFF" font-family="sans-serif" font-size="13" font-weight="bold" lengthAdjust="spacing" textLength="9.0454" x="197.6016" y="223.895">5</text><text fill="#FFFFFF" font-family="sans-serif" font-size="13" lengthAdjust="spacing" textLength="132.228" x="210.647" y="223.895">create labeltrack.txt</text></g><g class="message" data-entity-1="part3" data-entity-2="part13" id="msg6"><polygon fill="#008000" points="1152.4663,254.0938,1162.4663,258.0938,1152.4663,262.0938,1156.4663,258.0938" style="stroke:#008000;stroke-width:1;"/><line style="stroke:#008000;stroke-width:1;" x1="190.6016" x2="1158.4663" y1="258.0938" y2="258.0938"/><text fill="#FFFFFF" font-family="sans-serif" font-size="13" font-weight="bold" lengthAdjust="spacing" textLength="9.0454" x="197.6016" y="253.0278">6</text><text fill="#FFFFFF" font-family="sans-serif" font-size="13" lengthAdjust="spacing" textLength="319.8584" x="210.647" y="253.0278">create merged nwctxt, analysis.txt, structuur.tex</text></g><g class="message" data-entity-1="part1" data-entity-2="part4" id="msg7"><polygon fill="#008000" points="279.3638,283.2266,289.3638,287.2266,279.3638,291.2266,283.3638,287.2266" style="stroke:#008000;stroke-width:1;"/><line style="stroke:#008000;stroke-width:1;" x1="23.9551" x2="285.3638" y1="287.2266" y2="287.2266"/><text fill="#FFFFFF" font-family="sans-serif" font-size="13" font-weight="bold" lengthAdjust="spacing" textLength="9.0454" x="30.9551" y="282.1606">7</text><text fill="#FFFFFF" font-family="sans-serif" font-size="13" lengthAdjust="spacing" textLength="62.1816" x="44.0005" y="282.1606">run script</text></g><g class="message" data-entity-1="part4" data-entity-2="part4" id="msg8"><line style="stroke:#008000;stroke-width:1;" x1="291.3638" x2="333.3638" y1="316.3594" y2="316.3594"/><line style="stroke:#008000;stroke-width:1;" x1="333.3638" x2="333.3638" y1="316.3594" y2="329.3594"/><line style="stroke:#008000;stroke-width:1;" x1="292.3638" x2="333.3638" y1="329.3594" y2="329.3594"/><polygon fill="#008000" points="302.3638,325.3594,292.3638,329.3594,302.3638,333.3594,298.3638,329.3594" style="stroke:#008000;stroke-width:1;"/><text fill="#FFFFFF" font-family="sans-serif" font-size="13" font-weight="bold" lengthAdjust="spacing" textLength="9.0454" x="298.3638" y="311.2935">8</text><text fill="#FFFFFF" font-family="sans-serif" font-size="13" lengthAdjust="spacing" textLength="95.2402" x="311.4092" y="311.2935">For each Staff:</text></g><g class="message" data-entity-1="part4" data-entity-2="part5" id="msg9"><polygon fill="#008000" points="401.6494,354.4922,411.6494,358.4922,401.6494,362.4922,405.6494,358.4922" style="stroke:#008000;stroke-width:1;"/><line style="stroke:#008000;stroke-width:1;" x1="291.3638" x2="407.6494" y1="358.4922" y2="358.4922"/><text fill="#FFFFFF" font-family="sans-serif" font-size="13" font-weight="bold" lengthAdjust="spacing" textLength="9.0454" x="298.3638" y="353.4263">9</text><text fill="#FFFFFF" font-family="sans-serif" font-size="13" lengthAdjust="spacing" textLength="22.3374" x="311.4092" y="353.4263">call</text></g><g class="message" data-entity-1="part5" data-entity-2="part12" id="msg10"><polygon fill="#008000" points="976.5532,383.625,986.5532,387.625,976.5532,391.625,980.5532,387.625" style="stroke:#008000;stroke-width:1;"/><line style="stroke:#008000;stroke-width:1;" x1="413.6494" x2="982.5532" y1="387.625" y2="387.625"/><text fill="#FFFFFF" font-family="sans-serif" font-size="13" font-weight="bold" lengthAdjust="spacing" textLength="18.0908" x="420.6494" y="382.5591">10</text><text fill="#FFFFFF" font-family="sans-serif" font-size="13" lengthAdjust="spacing" textLength="151.6201" x="442.7402" y="382.5591">convert .nwctxt to .mid</text></g><g class="message" data-entity-1="part13" data-entity-2="part12" id="msg11"><polygon fill="#FFA500" points="999.5532,412.7578,989.5532,416.7578,999.5532,420.7578,995.5532,416.7578" style="stroke:#FFA500;stroke-width:1;"/><line style="stroke:#FFA500;stroke-width:1;" x1="993.5532" x2="1163.4663" y1="416.7578" y2="416.7578"/><text fill="#FFFFFF" font-family="sans-serif" font-size="13" font-weight="bold" lengthAdjust="spacing" textLength="18.0908" x="1005.5532" y="411.6919">11</text><text fill="#FFFFFF" font-family="sans-serif" font-size="13" lengthAdjust="spacing" textLength="129.8223" x="1027.644" y="411.6919">use merged .nwctxt</text></g><g class="message" data-entity-1="part12" data-entity-2="part12" id="msg12"><line style="stroke:#FFA500;stroke-width:1;" x1="988.5532" x2="1030.5532" y1="445.8906" y2="445.8906"/><line style="stroke:#FFA500;stroke-width:1;" x1="1030.5532" x2="1030.5532" y1="445.8906" y2="458.8906"/><line style="stroke:#FFA500;stroke-width:1;" x1="989.5532" x2="1030.5532" y1="458.8906" y2="458.8906"/><polygon fill="#FFA500" points="999.5532,454.8906,989.5532,458.8906,999.5532,462.8906,995.5532,458.8906" style="stroke:#FFA500;stroke-width:1;"/><text fill="#FFFFFF" font-family="sans-serif" font-size="13" font-weight="bold" lengthAdjust="spacing" textLength="18.0908" x="995.5532" y="440.8247">12</text><text fill="#FFFFFF" font-family="sans-serif" font-size="13" lengthAdjust="spacing" textLength="92.4663" x="1017.644" y="440.8247">use soundfont</text></g><g class="message" data-entity-1="part4" data-entity-2="part6" id="msg13"><polygon fill="#008000" points="487.8989,484.0234,497.8989,488.0234,487.8989,492.0234,491.8989,488.0234" style="stroke:#008000;stroke-width:1;"/><line style="stroke:#008000;stroke-width:1;" x1="291.3638" x2="493.8989" y1="488.0234" y2="488.0234"/><text fill="#FFFFFF" font-family="sans-serif" font-size="13" font-weight="bold" lengthAdjust="spacing" textLength="18.0908" x="298.3638" y="482.9575">13</text><text fill="#FFFFFF" font-family="sans-serif" font-size="13" lengthAdjust="spacing" textLength="22.3374" x="320.4546" y="482.9575">call</text></g><g class="message" data-entity-1="part6" data-entity-2="part12" id="msg14"><polygon fill="#008000" points="976.5532,513.1563,986.5532,517.1563,976.5532,521.1563,980.5532,517.1563" style="stroke:#008000;stroke-width:1;"/><line style="stroke:#008000;stroke-width:1;" x1="499.8989" x2="982.5532" y1="517.1563" y2="517.1563"/><text fill="#FFFFFF" font-family="sans-serif" font-size="13" font-weight="bold" lengthAdjust="spacing" textLength="18.0908" x="506.8989" y="512.0903">14</text><text fill="#FFFFFF" font-family="sans-serif" font-size="13" lengthAdjust="spacing" textLength="129.873" x="528.9897" y="512.0903">convert .mid to.wav</text></g><g class="message" data-entity-1="part12" data-entity-2="part12" id="msg15"><line style="stroke:#FFA500;stroke-width:1;" x1="988.5532" x2="1030.5532" y1="546.2891" y2="546.2891"/><line style="stroke:#FFA500;stroke-width:1;" x1="1030.5532" x2="1030.5532" y1="546.2891" y2="559.2891"/><line style="stroke:#FFA500;stroke-width:1;" x1="989.5532" x2="1030.5532" y1="559.2891" y2="559.2891"/><polygon fill="#FFA500" points="999.5532,555.2891,989.5532,559.2891,999.5532,563.2891,995.5532,559.2891" style="stroke:#FFA500;stroke-width:1;"/><text fill="#FFFFFF" font-family="sans-serif" font-size="13" font-weight="bold" lengthAdjust="spacing" textLength="18.0908" x="995.5532" y="541.2231">15</text><text fill="#FFFFFF" font-family="sans-serif" font-size="13" lengthAdjust="spacing" textLength="93.7041" x="1017.644" y="541.2231">call Fluidsynth</text></g><g class="message" data-entity-1="part4" data-entity-2="part7" id="msg16"><polygon fill="#008000" points="566.605,584.4219,576.605,588.4219,566.605,592.4219,570.605,588.4219" style="stroke:#008000;stroke-width:1;"/><line style="stroke:#008000;stroke-width:1;" x1="291.3638" x2="572.605" y1="588.4219" y2="588.4219"/><text fill="#FFFFFF" font-family="sans-serif" font-size="13" font-weight="bold" lengthAdjust="spacing" textLength="18.0908" x="298.3638" y="583.356">16</text><text fill="#FFFFFF" font-family="sans-serif" font-size="13" lengthAdjust="spacing" textLength="22.3374" x="320.4546" y="583.356">call</text></g><g class="message" data-entity-1="part7" data-entity-2="part12" id="msg17"><polygon fill="#008000" points="976.5532,613.5547,986.5532,617.5547,976.5532,621.5547,980.5532,617.5547" style="stroke:#008000;stroke-width:1;"/><line style="stroke:#008000;stroke-width:1;" x1="578.605" x2="982.5532" y1="617.5547" y2="617.5547"/><text fill="#FFFFFF" font-family="sans-serif" font-size="13" font-weight="bold" lengthAdjust="spacing" textLength="18.0908" x="585.605" y="612.4888">17</text><text fill="#FFFFFF" font-family="sans-serif" font-size="13" lengthAdjust="spacing" textLength="132.7803" x="607.6958" y="612.4888">convert .wav to .flac</text></g><g class="message" data-entity-1="part12" data-entity-2="part12" id="msg18"><line style="stroke:#FFA500;stroke-width:1;" x1="988.5532" x2="1030.5532" y1="646.6875" y2="646.6875"/><line style="stroke:#FFA500;stroke-width:1;" x1="1030.5532" x2="1030.5532" y1="646.6875" y2="659.6875"/><line style="stroke:#FFA500;stroke-width:1;" x1="989.5532" x2="1030.5532" y1="659.6875" y2="659.6875"/><polygon fill="#FFA500" points="999.5532,655.6875,989.5532,659.6875,999.5532,663.6875,995.5532,659.6875" style="stroke:#FFA500;stroke-width:1;"/><text fill="#FFFFFF" font-family="sans-serif" font-size="13" font-weight="bold" lengthAdjust="spacing" textLength="18.0908" x="995.5532" y="641.6216">18</text><text fill="#FFFFFF" font-family="sans-serif" font-size="13" lengthAdjust="spacing" textLength="75.6895" x="1017.644" y="641.6216">call Ffmpeg</text></g><g class="message" data-entity-1="part1" data-entity-2="part11" id="msg19"><polygon fill="#E7E7E7" points="879.8726,684.8203,889.8726,688.8203,879.8726,692.8203,883.8726,688.8203" style="stroke:#E7E7E7;stroke-width:1;"/><line style="stroke:#E7E7E7;stroke-width:1;" x1="23.9551" x2="885.8726" y1="688.8203" y2="688.8203"/><text fill="#FFFFFF" font-family="sans-serif" font-size="13" font-weight="bold" lengthAdjust="spacing" textLength="18.0908" x="30.9551" y="683.7544">19</text><text fill="#FFFFFF" font-family="sans-serif" font-size="13" lengthAdjust="spacing" textLength="189.5347" x="53.0459" y="683.7544">(manual) create liedtekst.tex</text></g><g class="message" data-entity-1="part13" data-entity-2="part11" id="msg20"><polygon fill="#FFA500" points="902.8726,713.9531,892.8726,717.9531,902.8726,721.9531,898.8726,717.9531" style="stroke:#FFA500;stroke-width:1;"/><line style="stroke:#FFA500;stroke-width:1;" x1="896.8726" x2="1163.4663" y1="717.9531" y2="717.9531"/><text fill="#FFFFFF" font-family="sans-serif" font-size="13" font-weight="bold" lengthAdjust="spacing" textLength="18.0908" x="908.8726" y="712.8872">20</text><text fill="#FFFFFF" font-family="sans-serif" font-size="13" lengthAdjust="spacing" textLength="101.7974" x="930.9634" y="712.8872">use analysis.txt</text></g><g class="message" data-entity-1="part1" data-entity-2="part8" id="msg21"><polygon fill="#008000" points="649.9902,743.0859,659.9902,747.0859,649.9902,751.0859,653.9902,747.0859" style="stroke:#008000;stroke-width:1;"/><line style="stroke:#008000;stroke-width:1;" x1="23.9551" x2="655.9902" y1="747.0859" y2="747.0859"/><text fill="#FFFFFF" font-family="sans-serif" font-size="13" font-weight="bold" lengthAdjust="spacing" textLength="18.0908" x="30.9551" y="742.02">21</text><text fill="#FFFFFF" font-family="sans-serif" font-size="13" lengthAdjust="spacing" textLength="62.1816" x="53.0459" y="742.02">run script</text></g><g class="message" data-entity-1="part8" data-entity-2="part14" id="msg22"><polygon fill="#008000" points="1243.5488,772.2188,1253.5488,776.2188,1243.5488,780.2188,1247.5488,776.2188" style="stroke:#008000;stroke-width:1;"/><line style="stroke:#008000;stroke-width:1;" x1="661.9902" x2="1249.5488" y1="776.2188" y2="776.2188"/><text fill="#FFFFFF" font-family="sans-serif" font-size="13" font-weight="bold" lengthAdjust="spacing" textLength="18.0908" x="668.9902" y="771.1528">22</text><text fill="#FFFFFF" font-family="sans-serif" font-size="13" lengthAdjust="spacing" textLength="277.0625" x="691.0811" y="771.1528">render liedtekst .pdf, render structuur .pdf</text></g><g class="message" data-entity-1="part1" data-entity-2="part9" id="msg23"><polygon fill="#008000" points="739.8833,801.3516,749.8833,805.3516,739.8833,809.3516,743.8833,805.3516" style="stroke:#008000;stroke-width:1;"/><line style="stroke:#008000;stroke-width:1;" x1="23.9551" x2="745.8833" y1="805.3516" y2="805.3516"/><text fill="#FFFFFF" font-family="sans-serif" font-size="13" font-weight="bold" lengthAdjust="spacing" textLength="18.0908" x="30.9551" y="800.2856">23</text><text fill="#FFFFFF" font-family="sans-serif" font-size="13" lengthAdjust="spacing" textLength="62.1816" x="53.0459" y="800.2856">run script</text></g><g class="message" data-entity-1="part9" data-entity-2="part15" id="msg24"><polygon fill="#008000" points="1317.7568,830.4844,1327.7568,834.4844,1317.7568,838.4844,1321.7568,834.4844" style="stroke:#008000;stroke-width:1;"/><line style="stroke:#008000;stroke-width:1;" x1="751.8833" x2="1323.7568" y1="834.4844" y2="834.4844"/><text fill="#FFFFFF" font-family="sans-serif" font-size="13" font-weight="bold" lengthAdjust="spacing" textLength="18.0908" x="758.8833" y="829.4185">24</text><text fill="#FFFFFF" font-family="sans-serif" font-size="13" lengthAdjust="spacing" textLength="134.0498" x="780.9741" y="829.4185">upload pdf's to drive</text></g><g class="message" data-entity-1="part1" data-entity-2="part10" id="msg25"><polygon fill="#E7E7E7" points="818.8833,859.6172,828.8833,863.6172,818.8833,867.6172,822.8833,863.6172" style="stroke:#E7E7E7;stroke-width:1;"/><line style="stroke:#E7E7E7;stroke-width:1;" x1="23.9551" x2="824.8833" y1="863.6172" y2="863.6172"/><text fill="#FFFFFF" font-family="sans-serif" font-size="13" font-weight="bold" lengthAdjust="spacing" textLength="18.0908" x="30.9551" y="858.5513">25</text><text fill="#FFFFFF" font-family="sans-serif" font-size="13" lengthAdjust="spacing" textLength="57.8335" x="53.0459" y="858.5513">start GUI</text></g><g class="message" data-entity-1="part12" data-entity-2="part10" id="msg26"><polygon fill="#FFA500" points="841.8833,888.75,831.8833,892.75,841.8833,896.75,837.8833,892.75" style="stroke:#FFA500;stroke-width:1;"/><line style="stroke:#FFA500;stroke-width:1;" x1="835.8833" x2="987.5532" y1="892.75" y2="892.75"/><text fill="#FFFFFF" font-family="sans-serif" font-size="13" font-weight="bold" lengthAdjust="spacing" textLength="18.0908" x="847.8833" y="887.6841">26</text><text fill="#FFFFFF" font-family="sans-serif" font-size="13" lengthAdjust="spacing" textLength="81.2627" x="869.9741" y="887.6841">import .flacs</text></g><g class="message" data-entity-1="part12" data-entity-2="part10" id="msg27"><polygon fill="#FFA500" points="841.8833,917.8828,831.8833,921.8828,841.8833,925.8828,837.8833,921.8828" style="stroke:#FFA500;stroke-width:1;"/><line style="stroke:#FFA500;stroke-width:1;" x1="835.8833" x2="987.5532" y1="921.8828" y2="921.8828"/><text fill="#FFFFFF" font-family="sans-serif" font-size="13" font-weight="bold" lengthAdjust="spacing" textLength="18.0908" x="847.8833" y="916.8169">27</text><text fill="#FFFFFF" font-family="sans-serif" font-size="13" lengthAdjust="spacing" textLength="111.5791" x="869.9741" y="916.8169">import labeltrack</text></g><g class="message" data-entity-1="part1" data-entity-2="part10" id="msg28"><polygon fill="#E7E7E7" points="818.8833,947.0156,828.8833,951.0156,818.8833,955.0156,822.8833,951.0156" style="stroke:#E7E7E7;stroke-width:1;"/><line style="stroke:#E7E7E7;stroke-width:1;" x1="23.9551" x2="824.8833" y1="951.0156" y2="951.0156"/><text fill="#FFFFFF" font-family="sans-serif" font-size="13" font-weight="bold" lengthAdjust="spacing" textLength="18.0908" x="30.9551" y="945.9497">28</text><text fill="#FFFFFF" font-family="sans-serif" font-size="13" lengthAdjust="spacing" textLength="165.3945" x="53.0459" y="945.9497">(manual) make recording</text></g><!--SRC=[ZPJBRjim44Nt-eg1kt02n0Ao5OgiYXG5Yg90crNR1KsE528K9P13F_w-V8Xws8fRhyohGyxbp70Ofyv0-hrOp7-P1VTOy4wJwLHKDj-E_BSkyOIRJEWZlq9sNk2CFDcVDp0ZlToVL_43cbN-y1u_sXX9lroYpyf9OS-QNYVFdgw3V47MROzDfW8JXINqbNODQZICS73gGKLPku9Thpec0cetmvKK9N79_aJDkAJp_4eqQ8LWnFRCOYGRIJ6gmRwpoq_C2Tb1tIc19Z9HM39x9vMOCr5OCa9QcYDXlI2-VpBoWE5JByA_ec2EEktQFPh2FSBkATG3Ah343C7dbo-36arNSDSoxPYw1sxGfmrQfqX2wVVGYROsmhy-D0PH_taQcyQVPvm6outigIYsa5gi6B_FzWo1N2_2-KgYA0bFgsZAMfMzABP7HORnjzARMTqHKpPkQD4qA22PVm2ccJfRQSkuicGS9-TC39yyXpvVk-BXyegZka9MyEpVApB-2Z-8rNLrW_OT5Ux7b2ecuJ83LRQMwm3KGTdwPv9QnlETORh1QOEpu-s7FKLAvZkixPmMjM_xLQ_nJMQVQR5MfMpIE_CEooCxl1yq70NJ25WF6v_v63UjRWNs4MDgQiNulqAd4UBBhiv6Sdlx5OGk9Nop57lbEkkvftqcvqrMNFJID8wMtJJJPtHusnv3xH_xv03ANjGFMHwREChXEcc4mPtKGAy86fc1sf4p-92_7QLFmDvRhSaVOP1tHjnVMHtW2wE3EYFJd84gd-vzR6qemp1_jaE48SDvT2v6q2X-79Ew6yihsxuBrGrLjV1Vx3GfhgEEjMtP6mxUf6x-0W00]--></g></svg>