<svg xmlns="http://www.w3.org/2000/svg" xmlns:xlink="http://www.w3.org/1999/xlink" contentStyleType="text/css" data-diagram-type="SEQUENCE" height="1007px" preserveAspectRatio="none" style="width:1336px;height:1007px;background:#1B1B1B;" version="1.1" viewBox="0 0 1336 1007" width="1336px" zoomAndPan="magnify"><defs/><g><rect fill="#1B1B1B" height="1007" style="stroke:none;stroke-width:1;" width="1336" x="0" y="0"/><g><title>User</title><rect fill="#000000" fill-opacity="0.00000" height="845.5859" width="8" x="19.9551" y="81.2969"/><line style="stroke:#E7E7E7;stroke-width:0.5;stroke-dasharray:5,5;" x1="23" x2="23" y1="81.2969" y2="926.8828"/></g><g><title>Nwc</title><rect fill="#000000" fill-opacity="0.00000" height="845.5859" width="8" x="114.834" y="81.2969"/><line style="stroke:#E7E7E7;stroke-width:0.5;stroke-dasharray:5,5;" x1="117.853" x2="117.853" y1="81.2969" y2="926.8828"/></g><g><title>Nwc-concat</title><rect fill="#000000" fill-opacity="0.00000" height="845.5859" width="8" x="186.6016" y="81.2969"/><line style="stroke:#E7E7E7;stroke-width:0.5;stroke-dasharray:5,5;" x1="189.8149" x2="189.8149" y1="81.2969" y2="926.8828"/></g><g><title>Nwc-convert</title><rect fill="#000000" fill-opacity="0.00000" height="845.5859" width="8" x="287.3638" y="81.2969"/><line style="stroke:#E7E7E7;stroke-width:0.5;stroke-dasharray:5,5;" x1="290.3882" x2="290.3882" y1="81.2969" y2="926.8828"/></g><g><title>Nwc-conv</title><rect fill="#000000" fill-opacity="0.00000" height="845.5859" width="8" x="381.3857" y="81.2969"/><line style="stroke:#E7E7E7;stroke-width:0.5;stroke-dasharray:5,5;" x1="385.3394" x2="385.3394" y1="81.2969" y2="926.8828"/></g><g><title>Fluidsynth</title><rect fill="#000000" fill-opacity="0.00000" height="845.5859" width="8" x="467.6353" y="81.2969"/><line style="stroke:#E7E7E7;stroke-width:0.5;stroke-dasharray:5,5;" x1="471.4321" x2="471.4321" y1="81.2969" y2="926.8828"/></g><g><title>Ffmpeg</title><rect fill="#000000" fill-opacity="0.00000" height="845.5859" width="8" x="546.3413" y="81.2969"/><line style="stroke:#E7E7E7;stroke-width:0.5;stroke-dasharray:5,5;" x1="549.8384" x2="549.8384" y1="81.2969" y2="926.8828"/></g><g><title>Lt-generate</title><rect fill="#000000" fill-opacity="0.00000" height="845.5859" width="8" x="629.7266" y="81.2969"/><line style="stroke:#E7E7E7;stroke-width:0.5;stroke-dasharray:5,5;" x1="632.8442" x2="632.8442" y1="81.2969" y2="926.8828"/></g><g><title>Lt-upload</title><rect fill="#000000" fill-opacity="0.00000" height="845.5859" width="8" x="719.6196" y="81.2969"/><line style="stroke:#E7E7E7;stroke-width:0.5;stroke-dasharray:5,5;" x1="723.6089" x2="723.6089" y1="81.2969" y2="926.8828"/></g><g><title>Tenacity</title><rect fill="#000000" fill-opacity="0.00000" height="845.5859" width="8" x="798.6196" y="81.2969"/><line style="stroke:#E7E7E7;stroke-width:0.5;stroke-dasharray:5,5;" x1="801.6304" x2="801.6304" y1="81.2969" y2="926.8828"/></g><g><title>git</title><rect fill="#000000" fill-opacity="0.00000" height="845.5859" width="8" x="859.6089" y="81.2969"/><line style="stroke:#E7E7E7;stroke-width:0.5;stroke-dasharray:5,5;" x1="863.6089" x2="863.6089" y1="81.2969" y2="926.8828"/></g><g><title>audio folder</title><rect fill="#000000" fill-opacity="0.00000" height="845.5859" width="8" x="956.2896" y="81.2969"/><line style="stroke:#E7E7E7;stroke-width:0.5;stroke-dasharray:5,5;" x1="959.3477" x2="959.3477" y1="81.2969" y2="926.8828"/></g><g><title>build folder</title><rect fill="#000000" fill-opacity="0.00000" height="845.5859" width="8" x="1132.2026" y="81.2969"/><line style="stroke:#E7E7E7;stroke-width:0.5;stroke-dasharray:5,5;" x1="1135.4448" x2="1135.4448" y1="81.2969" y2="926.8828"/></g><g><title>dist folder</title><rect fill="#000000" fill-opacity="0.00000" height="845.5859" width="8" x="1223.2852" y="81.2969"/><line style="stroke:#E7E7E7;stroke-width:0.5;stroke-dasharray:5,5;" x1="1226.9604" x2="1226.9604" y1="81.2969" y2="926.8828"/></g><g><title>PDrive</title><rect fill="#000000" fill-opacity="0.00000" height="845.5859" width="8" x="1297.4932" y="81.2969"/><line style="stroke:#E7E7E7;stroke-width:0.5;stroke-dasharray:5,5;" x1="1300.6099" x2="1300.6099" y1="81.2969" y2="926.8828"/></g><g class="participant participant-head" data-participant="u1"><text fill="#FFFFFF" font-family="sans-serif" font-size="14" lengthAdjust="spacing" textLength="31.9102" x="5" y="77.9951">User</text><ellipse cx="23.9551" cy="13.5" fill="#222222" rx="8" ry="8" style="stroke:#E7E7E7;stroke-width:0.5;"/><path d="M23.9551,21.5 L23.9551,48.5 M10.9551,29.5 L36.9551,29.5 M23.9551,48.5 L10.9551,63.5 M23.9551,48.5 L36.9551,63.5" fill="none" style="stroke:#E7E7E7;stroke-width:0.5;"/></g><g class="participant participant-tail" data-participant="u1"><text fill="#FFFFFF" font-family="sans-serif" font-size="14" lengthAdjust="spacing" textLength="31.9102" x="5" y="938.8779">User</text><ellipse cx="23.9551" cy="950.6797" fill="#222222" rx="8" ry="8" style="stroke:#E7E7E7;stroke-width:0.5;"/><path d="M23.9551,958.6797 L23.9551,985.6797 M10.9551,966.6797 L36.9551,966.6797 M23.9551,985.6797 L10.9551,1000.6797 M23.9551,985.6797 L36.9551,1000.6797" fill="none" style="stroke:#E7E7E7;stroke-width:0.5;"/></g><g class="participant participant-head" data-participant="nwc"><text fill="#FFFFFF" font-family="sans-serif" font-size="14" lengthAdjust="spacing" textLength="29.6201" x="101.0239" y="61.6982">Nwc</text><text fill="#FFFFFF" font-family="sans-serif" font-size="14" lengthAdjust="spacing" textLength="29.9619" x="100.853" y="77.9951">.exe</text><ellipse cx="118.834" cy="32.7031" fill="#222222" rx="12" ry="12" style="stroke:#E7E7E7;stroke-width:0.5;"/><polygon fill="#E7E7E7" points="114.834,20.7031,120.834,15.7031,118.834,20.7031,120.834,25.7031,114.834,20.7031" style="stroke:#E7E7E7;stroke-width:1;"/></g><g class="participant participant-tail" data-participant="nwc"><text fill="#FFFFFF" font-family="sans-serif" font-size="14" lengthAdjust="spacing" textLength="29.6201" x="101.0239" y="938.8779">Nwc</text><text fill="#FFFFFF" font-family="sans-serif" font-size="14" lengthAdjust="spacing" textLength="29.9619" x="100.853" y="955.1748">.exe</text><ellipse cx="118.834" cy="974.4766" fill="#222222" rx="12" ry="12" style="stroke:#E7E7E7;stroke-width:0.5;"/><polygon fill="#E7E7E7" points="114.834,962.4766,120.834,957.4766,118.834,962.4766,120.834,967.4766,114.834,962.4766" style="stroke:#E7E7E7;stroke-width:1;"/></g><g class="participant participant-head" data-participant="nwconcpy"><text fill="#FFFFFF" font-family="sans-serif" font-size="14" lengthAdjust="spacing" textLength="81.5732" x="146.8149" y="61.6982">Nwc-concat</text><text fill="#FFFFFF" font-family="sans-serif" font-size="14" lengthAdjust="spacing" textLength="21.6221" x="176.7905" y="77.9951">.py</text><ellipse cx="190.6016" cy="32.7031" fill="#222222" rx="12" ry="12" style="stroke:#E7E7E7;stroke-width:0.5;"/><polygon fill="#E7E7E7" points="186.6016,20.7031,192.6016,15.7031,190.6016,20.7031,192.6016,25.7031,186.6016,20.7031" style="stroke:#E7E7E7;stroke-width:1;"/></g><g class="participant participant-tail" data-participant="nwconcpy"><text fill="#FFFFFF" font-family="sans-serif" font-size="14" lengthAdjust="spacing" textLength="81.5732" x="146.8149" y="938.8779">Nwc-concat</text><text fill="#FFFFFF" font-family="sans-serif" font-size="14" lengthAdjust="spacing" textLength="21.6221" x="176.7905" y="955.1748">.py</text><ellipse cx="190.6016" cy="974.4766" fill="#222222" rx="12" ry="12" style="stroke:#E7E7E7;stroke-width:0.5;"/><polygon fill="#E7E7E7" points="186.6016,962.4766,192.6016,957.4766,190.6016,962.4766,192.6016,967.4766,186.6016,962.4766" style="stroke:#E7E7E7;stroke-width:1;"/></g><g class="participant participant-head" data-participant="nwconvpy"><text fill="#FFFFFF" font-family="sans-serif" font-size="14" lengthAdjust="spacing" textLength="87.9512" x="244.3882" y="61.6982">Nwc-convert</text><text fill="#FFFFFF" font-family="sans-serif" font-size="14" lengthAdjust="spacing" textLength="21.6221" x="277.5527" y="77.9951">.py</text><ellipse cx="291.3638" cy="32.7031" fill="#222222" rx="12" ry="12" style="stroke:#E7E7E7;stroke-width:0.5;"/><polygon fill="#E7E7E7" points="287.3638,20.7031,293.3638,15.7031,291.3638,20.7031,293.3638,25.7031,287.3638,20.7031" style="stroke:#E7E7E7;stroke-width:1;"/></g><g class="participant participant-tail" data-participant="nwconvpy"><text fill="#FFFFFF" font-family="sans-serif" font-size="14" lengthAdjust="spacing" textLength="87.9512" x="244.3882" y="938.8779">Nwc-convert</text><text fill="#FFFFFF" font-family="sans-serif" font-size="14" lengthAdjust="spacing" textLength="21.6221" x="277.5527" y="955.1748">.py</text><ellipse cx="291.3638" cy="974.4766" fill="#222222" rx="12" ry="12" style="stroke:#E7E7E7;stroke-width:0.5;"/><polygon fill="#E7E7E7" points="287.3638,962.4766,293.3638,957.4766,291.3638,962.4766,293.3638,967.4766,287.3638,962.4766" style="stroke:#E7E7E7;stroke-width:1;"/></g><g class="participant participant-head" data-participant="nwconvexe"><text fill="#FFFFFF" font-family="sans-serif" font-size="14" lengthAdjust="spacing" textLength="68.0928" x="348.3394" y="61.6982">Nwc-conv</text><text fill="#FFFFFF" font-family="sans-serif" font-size="14" lengthAdjust="spacing" textLength="29.9619" x="367.4048" y="77.9951">.exe</text><ellipse cx="385.3857" cy="32.7031" fill="#222222" rx="12" ry="12" style="stroke:#E7E7E7;stroke-width:0.5;"/><polygon fill="#E7E7E7" points="381.3857,20.7031,387.3857,15.7031,385.3857,20.7031,387.3857,25.7031,381.3857,20.7031" style="stroke:#E7E7E7;stroke-width:1;"/></g><g class="participant participant-tail" data-participant="nwconvexe"><text fill="#FFFFFF" font-family="sans-serif" font-size="14" lengthAdjust="spacing" textLength="68.0928" x="348.3394" y="938.8779">Nwc-conv</text><text fill="#FFFFFF" font-family="sans-serif" font-size="14" lengthAdjust="spacing" textLength="29.9619" x="367.4048" y="955.1748">.exe</text><ellipse cx="385.3857" cy="974.4766" fill="#222222" rx="12" ry="12" style="stroke:#E7E7E7;stroke-width:0.5;"/><polygon fill="#E7E7E7" points="381.3857,962.4766,387.3857,957.4766,385.3857,962.4766,387.3857,967.4766,381.3857,962.4766" style="stroke:#E7E7E7;stroke-width:1;"/></g><g class="participant participant-head" data-participant="fluid"><text fill="#FFFFFF" font-family="sans-serif" font-size="14" lengthAdjust="spacing" textLength="72.4063" x="432.4321" y="61.6982">Fluidsynth</text><text fill="#FFFFFF" font-family="sans-serif" font-size="14" lengthAdjust="spacing" textLength="29.9619" x="453.6543" y="77.9951">.exe</text><ellipse cx="471.6353" cy="32.7031" fill="#222222" rx="12" ry="12" style="stroke:#E7E7E7;stroke-width:0.5;"/><polygon fill="#E7E7E7" points="467.6353,20.7031,473.6353,15.7031,471.6353,20.7031,473.6353,25.7031,467.6353,20.7031" style="stroke:#E7E7E7;stroke-width:1;"/></g><g class="participant participant-tail" data-participant="fluid"><text fill="#FFFFFF" font-family="sans-serif" font-size="14" lengthAdjust="spacing" textLength="72.4063" x="432.4321" y="938.8779">Fluidsynth</text><text fill="#FFFFFF" font-family="sans-serif" font-size="14" lengthAdjust="spacing" textLength="29.9619" x="453.6543" y="955.1748">.exe</text><ellipse cx="471.6353" cy="974.4766" fill="#222222" rx="12" ry="12" style="stroke:#E7E7E7;stroke-width:0.5;"/><polygon fill="#E7E7E7" points="467.6353,962.4766,473.6353,957.4766,471.6353,962.4766,473.6353,967.4766,467.6353,962.4766" style="stroke:#E7E7E7;stroke-width:1;"/></g><g class="participant participant-head" data-participant="ffmpeg"><text fill="#FFFFFF" font-family="sans-serif" font-size="14" lengthAdjust="spacing" textLength="53.0059" x="520.8384" y="61.6982">Ffmpeg</text><text fill="#FFFFFF" font-family="sans-serif" font-size="14" lengthAdjust="spacing" textLength="29.9619" x="532.3604" y="77.9951">.exe</text><ellipse cx="550.3413" cy="32.7031" fill="#222222" rx="12" ry="12" style="stroke:#E7E7E7;stroke-width:0.5;"/><polygon fill="#E7E7E7" points="546.3413,20.7031,552.3413,15.7031,550.3413,20.7031,552.3413,25.7031,546.3413,20.7031" style="stroke:#E7E7E7;stroke-width:1;"/></g><g class="participant participant-tail" data-participant="ffmpeg"><text fill="#FFFFFF" font-family="sans-serif" font-size="14" lengthAdjust="spacing" textLength="53.0059" x="520.8384" y="938.8779">Ffmpeg</text><text fill="#FFFFFF" font-family="sans-serif" font-size="14" lengthAdjust="spacing" textLength="29.9619" x="532.3604" y="955.1748">.exe</text><ellipse cx="550.3413" cy="974.4766" fill="#222222" rx="12" ry="12" style="stroke:#E7E7E7;stroke-width:0.5;"/><polygon fill="#E7E7E7" points="546.3413,962.4766,552.3413,957.4766,550.3413,962.4766,552.3413,967.4766,546.3413,962.4766" style="stroke:#E7E7E7;stroke-width:1;"/></g><g class="participant participant-head" data-participant="ltgenerate"><text fill="#FFFFFF" font-family="sans-serif" font-size="14" lengthAdjust="spacing" textLength="81.7646" x="589.8442" y="61.6982">Lt-generate</text><text fill="#FFFFFF" font-family="sans-serif" font-size="14" lengthAdjust="spacing" textLength="21.6221" x="619.9155" y="77.9951">.py</text><ellipse cx="633.7266" cy="32.7031" fill="#222222" rx="12" ry="12" style="stroke:#E7E7E7;stroke-width:0.5;"/><polygon fill="#E7E7E7" points="629.7266,20.7031,635.7266,15.7031,633.7266,20.7031,635.7266,25.7031,629.7266,20.7031" style="stroke:#E7E7E7;stroke-width:1;"/></g><g class="participant participant-tail" data-participant="ltgenerate"><text fill="#FFFFFF" font-family="sans-serif" font-size="14" lengthAdjust="spacing" textLength="81.7646" x="589.8442" y="938.8779">Lt-generate</text><text fill="#FFFFFF" font-family="sans-serif" font-size="14" lengthAdjust="spacing" textLength="21.6221" x="619.9155" y="955.1748">.py</text><ellipse cx="633.7266" cy="974.4766" fill="#222222" rx="12" ry="12" style="stroke:#E7E7E7;stroke-width:0.5;"/><polygon fill="#E7E7E7" points="629.7266,962.4766,635.7266,957.4766,633.7266,962.4766,635.7266,967.4766,629.7266,962.4766" style="stroke:#E7E7E7;stroke-width:1;"/></g><g class="participant participant-head" data-participant="ltupload"><text fill="#FFFFFF" font-family="sans-serif" font-size="14" lengthAdjust="spacing" textLength="66.0215" x="687.6089" y="61.6982">Lt-upload</text><text fill="#FFFFFF" font-family="sans-serif" font-size="14" lengthAdjust="spacing" textLength="20.6309" x="710.3042" y="77.9951">.ps</text><ellipse cx="723.6196" cy="32.7031" fill="#222222" rx="12" ry="12" style="stroke:#E7E7E7;stroke-width:0.5;"/><polygon fill="#E7E7E7" points="719.6196,20.7031,725.6196,15.7031,723.6196,20.7031,725.6196,25.7031,719.6196,20.7031" style="stroke:#E7E7E7;stroke-width:1;"/></g><g class="participant participant-tail" data-participant="ltupload"><text fill="#FFFFFF" font-family="sans-serif" font-size="14" lengthAdjust="spacing" textLength="66.0215" x="687.6089" y="938.8779">Lt-upload</text><text fill="#FFFFFF" font-family="sans-serif" font-size="14" lengthAdjust="spacing" textLength="20.6309" x="710.3042" y="955.1748">.ps</text><ellipse cx="723.6196" cy="974.4766" fill="#222222" rx="12" ry="12" style="stroke:#E7E7E7;stroke-width:0.5;"/><polygon fill="#E7E7E7" points="719.6196,962.4766,725.6196,957.4766,723.6196,962.4766,725.6196,967.4766,719.6196,962.4766" style="stroke:#E7E7E7;stroke-width:1;"/></g><g class="participant participant-head" data-participant="tenacity"><text fill="#FFFFFF" font-family="sans-serif" font-size="14" lengthAdjust="spacing" textLength="59.9785" x="769.6304" y="61.6982">Tenacity</text><text fill="#FFFFFF" font-family="sans-serif" font-size="14" lengthAdjust="spacing" textLength="29.9619" x="784.6387" y="77.9951">.exe</text><ellipse cx="802.6196" cy="32.7031" fill="#222222" rx="12" ry="12" style="stroke:#E7E7E7;stroke-width:0.5;"/><polygon fill="#E7E7E7" points="798.6196,20.7031,804.6196,15.7031,802.6196,20.7031,804.6196,25.7031,798.6196,20.7031" style="stroke:#E7E7E7;stroke-width:1;"/></g><g class="participant participant-tail" data-participant="tenacity"><text fill="#FFFFFF" font-family="sans-serif" font-size="14" lengthAdjust="spacing" textLength="59.9785" x="769.6304" y="938.8779">Tenacity</text><text fill="#FFFFFF" font-family="sans-serif" font-size="14" lengthAdjust="spacing" textLength="29.9619" x="784.6387" y="955.1748">.exe</text><ellipse cx="802.6196" cy="974.4766" fill="#222222" rx="12" ry="12" style="stroke:#E7E7E7;stroke-width:0.5;"/><polygon fill="#E7E7E7" points="798.6196,962.4766,804.6196,957.4766,802.6196,962.4766,804.6196,967.4766,798.6196,962.4766" style="stroke:#E7E7E7;stroke-width:1;"/></g><g class="participant participant-head" data-participant="repos"><text fill="#FFFFFF" font-family="sans-serif" font-size="14" lengthAdjust="spacing" textLength="18.2656" x="851.4761" y="77.9951">git</text><path d="M845.6089,29 C845.6089,19 863.6089,19 863.6089,19 C863.6089,19 881.6089,19 881.6089,29 L881.6089,55 C881.6089,65 863.6089,65 863.6089,65 C863.6089,65 845.6089,65 845.6089,55 L845.6089,29" fill="#222222" style="stroke:#E7E7E7;stroke-width:0.5;"/><path d="M845.6089,29 C845.6089,39 863.6089,39 863.6089,39 C863.6089,39 881.6089,39 881.6089,29" fill="none" style="stroke:#E7E7E7;stroke-width:0.5;"/></g><g class="participant participant-tail" data-participant="repos"><text fill="#FFFFFF" font-family="sans-serif" font-size="14" lengthAdjust="spacing" textLength="18.2656" x="851.4761" y="938.8779">git</text><path d="M845.6089,952.1797 C845.6089,942.1797 863.6089,942.1797 863.6089,942.1797 C863.6089,942.1797 881.6089,942.1797 881.6089,952.1797 L881.6089,978.1797 C881.6089,988.1797 863.6089,988.1797 863.6089,988.1797 C863.6089,988.1797 845.6089,988.1797 845.6089,978.1797 L845.6089,952.1797" fill="#222222" style="stroke:#E7E7E7;stroke-width:0.5;"/><path d="M845.6089,952.1797 C845.6089,962.1797 863.6089,962.1797 863.6089,962.1797 C863.6089,962.1797 881.6089,962.1797 881.6089,952.1797" fill="none" style="stroke:#E7E7E7;stroke-width:0.5;"/></g><g class="participant participant-head" data-participant="audio"><text fill="#FFFFFF" font-family="sans-serif" font-size="14" lengthAdjust="spacing" textLength="83.8838" x="915.3477" y="77.9951">audio folder</text><path d="M942.2896,29 C942.2896,19 960.2896,19 960.2896,19 C960.2896,19 978.2896,19 978.2896,29 L978.2896,55 C978.2896,65 960.2896,65 960.2896,65 C960.2896,65 942.2896,65 942.2896,55 L942.2896,29" fill="#222222" style="stroke:#E7E7E7;stroke-width:0.5;"/><path d="M942.2896,29 C942.2896,39 960.2896,39 960.2896,39 C960.2896,39 978.2896,39 978.2896,29" fill="none" style="stroke:#E7E7E7;stroke-width:0.5;"/></g><g class="participant participant-tail" data-participant="audio"><text fill="#FFFFFF" font-family="sans-serif" font-size="14" lengthAdjust="spacing" textLength="83.8838" x="915.3477" y="938.8779">audio folder</text><path d="M942.2896,952.1797 C942.2896,942.1797 960.2896,942.1797 960.2896,942.1797 C960.2896,942.1797 978.2896,942.1797 978.2896,952.1797 L978.2896,978.1797 C978.2896,988.1797 960.2896,988.1797 960.2896,988.1797 C960.2896,988.1797 942.2896,988.1797 942.2896,978.1797 L942.2896,952.1797" fill="#222222" style="stroke:#E7E7E7;stroke-width:0.5;"/><path d="M942.2896,952.1797 C942.2896,962.1797 960.2896,962.1797 960.2896,962.1797 C960.2896,962.1797 978.2896,962.1797 978.2896,952.1797" fill="none" style="stroke:#E7E7E7;stroke-width:0.5;"/></g><g class="participant participant-head" data-participant="build"><text fill="#FFFFFF" font-family="sans-serif" font-size="14" lengthAdjust="spacing" textLength="79.5156" x="1093.4448" y="77.9951">build folder</text><path d="M1118.2026,29 C1118.2026,19 1136.2026,19 1136.2026,19 C1136.2026,19 1154.2026,19 1154.2026,29 L1154.2026,55 C1154.2026,65 1136.2026,65 1136.2026,65 C1136.2026,65 1118.2026,65 1118.2026,55 L1118.2026,29" fill="#222222" style="stroke:#E7E7E7;stroke-width:0.5;"/><path d="M1118.2026,29 C1118.2026,39 1136.2026,39 1136.2026,39 C1136.2026,39 1154.2026,39 1154.2026,29" fill="none" style="stroke:#E7E7E7;stroke-width:0.5;"/></g><g class="participant participant-tail" data-participant="build"><text fill="#FFFFFF" font-family="sans-serif" font-size="14" lengthAdjust="spacing" textLength="79.5156" x="1093.4448" y="938.8779">build folder</text><path d="M1118.2026,952.1797 C1118.2026,942.1797 1136.2026,942.1797 1136.2026,942.1797 C1136.2026,942.1797 1154.2026,942.1797 1154.2026,952.1797 L1154.2026,978.1797 C1154.2026,988.1797 1136.2026,988.1797 1136.2026,988.1797 C1136.2026,988.1797 1118.2026,988.1797 1118.2026,978.1797 L1118.2026,952.1797" fill="#222222" style="stroke:#E7E7E7;stroke-width:0.5;"/><path d="M1118.2026,952.1797 C1118.2026,962.1797 1136.2026,962.1797 1136.2026,962.1797 C1136.2026,962.1797 1154.2026,962.1797 1154.2026,952.1797" fill="none" style="stroke:#E7E7E7;stroke-width:0.5;"/></g><g class="participant participant-head" data-participant="dist"><text fill="#FFFFFF" font-family="sans-serif" font-size="14" lengthAdjust="spacing" textLength="70.6494" x="1188.9604" y="77.9951">dist folder</text><path d="M1209.2852,29 C1209.2852,19 1227.2852,19 1227.2852,19 C1227.2852,19 1245.2852,19 1245.2852,29 L1245.2852,55 C1245.2852,65 1227.2852,65 1227.2852,65 C1227.2852,65 1209.2852,65 1209.2852,55 L1209.2852,29" fill="#222222" style="stroke:#E7E7E7;stroke-width:0.5;"/><path d="M1209.2852,29 C1209.2852,39 1227.2852,39 1227.2852,39 C1227.2852,39 1245.2852,39 1245.2852,29" fill="none" style="stroke:#E7E7E7;stroke-width:0.5;"/></g><g class="participant participant-tail" data-participant="dist"><text fill="#FFFFFF" font-family="sans-serif" font-size="14" lengthAdjust="spacing" textLength="70.6494" x="1188.9604" y="938.8779">dist folder</text><path d="M1209.2852,952.1797 C1209.2852,942.1797 1227.2852,942.1797 1227.2852,942.1797 C1227.2852,942.1797 1245.2852,942.1797 1245.2852,952.1797 L1245.2852,978.1797 C1245.2852,988.1797 1227.2852,988.1797 1227.2852,988.1797 C1227.2852,988.1797 1209.2852,988.1797 1209.2852,978.1797 L1209.2852,952.1797" fill="#222222" style="stroke:#E7E7E7;stroke-width:0.5;"/><path d="M1209.2852,952.1797 C1209.2852,962.1797 1227.2852,962.1797 1227.2852,962.1797 C1227.2852,962.1797 1245.2852,962.1797 1245.2852,952.1797" fill="none" style="stroke:#E7E7E7;stroke-width:0.5;"/></g><g class="participant participant-head" data-participant="pdrive"><text fill="#FFFFFF" font-family="sans-serif" font-size="14" lengthAdjust="spacing" textLength="45.7666" x="1275.6099" y="77.9951">PDrive</text><path d="M1283.4932,29 C1283.4932,19 1301.4932,19 1301.4932,19 C1301.4932,19 1319.4932,19 1319.4932,29 L1319.4932,55 C1319.4932,65 1301.4932,65 1301.4932,65 C1301.4932,65 1283.4932,65 1283.4932,55 L1283.4932,29" fill="#222222" style="stroke:#E7E7E7;stroke-width:0.5;"/><path d="M1283.4932,29 C1283.4932,39 1301.4932,39 1301.4932,39 C1301.4932,39 1319.4932,39 1319.4932,29" fill="none" style="stroke:#E7E7E7;stroke-width:0.5;"/></g><g class="participant participant-tail" data-participant="pdrive"><text fill="#FFFFFF" font-family="sans-serif" font-size="14" lengthAdjust="spacing" textLength="45.7666" x="1275.6099" y="938.8779">PDrive</text><path d="M1283.4932,952.1797 C1283.4932,942.1797 1301.4932,942.1797 1301.4932,942.1797 C1301.4932,942.1797 1319.4932,942.1797 1319.4932,952.1797 L1319.4932,978.1797 C1319.4932,988.1797 1301.4932,988.1797 1301.4932,988.1797 C1301.4932,988.1797 1283.4932,988.1797 1283.4932,978.1797 L1283.4932,952.1797" fill="#222222" style="stroke:#E7E7E7;stroke-width:0.5;"/><path d="M1283.4932,952.1797 C1283.4932,962.1797 1301.4932,962.1797 1301.4932,962.1797 C1301.4932,962.1797 1319.4932,962.1797 1319.4932,952.1797" fill="none" style="stroke:#E7E7E7;stroke-width:0.5;"/></g><g class="message" data-participant-1="u1" data-participant-2="nwc"><polygon fill="#E7E7E7" points="106.834,108.4297,116.834,112.4297,106.834,116.4297,110.834,112.4297" style="stroke:#E7E7E7;stroke-width:1;"/><line style="stroke:#E7E7E7;stroke-width:1;" x1="23.9551" x2="112.834" y1="112.4297" y2="112.4297"/><text fill="#FFFFFF" font-family="sans-serif" font-size="13" font-weight="bold" lengthAdjust="spacing" textLength="9.0454" x="30.9551" y="107.3638">1</text><text fill="#FFFFFF" font-family="sans-serif" font-size="13" lengthAdjust="spacing" textLength="57.8335" x="44.0005" y="107.3638">start GUI</text></g><g class="message" data-participant-1="u1" data-participant-2="repos"><polygon fill="#E7E7E7" points="851.6089,137.5625,861.6089,141.5625,851.6089,145.5625,855.6089,141.5625" style="stroke:#E7E7E7;stroke-width:1;"/><line style="stroke:#E7E7E7;stroke-width:1;" x1="23.9551" x2="857.6089" y1="141.5625" y2="141.5625"/><text fill="#FFFFFF" font-family="sans-serif" font-size="13" font-weight="bold" lengthAdjust="spacing" textLength="9.0454" x="30.9551" y="136.4966">2</text><text fill="#FFFFFF" font-family="sans-serif" font-size="13" lengthAdjust="spacing" textLength="204.3882" x="44.0005" y="136.4966">(manual) create multi .nwctxt's</text></g><g class="message" data-participant-1="u1" data-participant-2="nwconcpy"><polygon fill="#008000" points="178.6016,166.6953,188.6016,170.6953,178.6016,174.6953,182.6016,170.6953" style="stroke:#008000;stroke-width:1;"/><line style="stroke:#008000;stroke-width:1;" x1="23.9551" x2="184.6016" y1="170.6953" y2="170.6953"/><text fill="#FFFFFF" font-family="sans-serif" font-size="13" font-weight="bold" lengthAdjust="spacing" textLength="9.0454" x="30.9551" y="165.6294">3</text><text fill="#FFFFFF" font-family="sans-serif" font-size="13" lengthAdjust="spacing" textLength="62.1816" x="44.0005" y="165.6294">run script</text></g><g class="message" data-participant-1="nwconcpy" data-participant-2="repos"><polygon fill="#008000" points="851.6089,195.8281,861.6089,199.8281,851.6089,203.8281,855.6089,199.8281" style="stroke:#008000;stroke-width:1;"/><line style="stroke:#008000;stroke-width:1;" x1="190.6016" x2="857.6089" y1="199.8281" y2="199.8281"/><text fill="#FFFFFF" font-family="sans-serif" font-size="13" font-weight="bold" lengthAdjust="spacing" textLength="9.0454" x="197.6016" y="194.7622">4</text><text fill="#FFFFFF" font-family="sans-serif" font-size="13" lengthAdjust="spacing" textLength="98.3315" x="210.647" y="194.7622">update lied.tex</text></g><g class="message" data-participant-1="nwconcpy" data-participant-2="audio"><polygon fill="#008000" points="948.2896,224.9609,958.2896,228.9609,948.2896,232.9609,952.2896,228.9609" style="stroke:#008000;stroke-width:1;"/><line style="stroke:#008000;stroke-width:1;" x1="190.6016" x2="954.2896" y1="228.9609" y2="228.9609"/><text fill="#FFFFFF" font-family="sans-serif" font-size="13" font-weight="bold" lengthAdjust="spacing" textLength="9.0454" x="197.6016" y="223.895">5</text><text fill="#FFFFFF" font-family="sans-serif" font-size="13" lengthAdjust="spacing" textLength="132.228" x="210.647" y="223.895">create labeltrack.txt</text></g><g class="message" data-participant-1="nwconcpy" data-participant-2="build"><polygon fill="#008000" points="1124.2026,254.0938,1134.2026,258.0938,1124.2026,262.0938,1128.2026,258.0938" style="stroke:#008000;stroke-width:1;"/><line style="stroke:#008000;stroke-width:1;" x1="190.6016" x2="1130.2026" y1="258.0938" y2="258.0938"/><text fill="#FFFFFF" font-family="sans-serif" font-size="13" font-weight="bold" lengthAdjust="spacing" textLength="9.0454" x="197.6016" y="253.0278">6</text><text fill="#FFFFFF" font-family="sans-serif" font-size="13" lengthAdjust="spacing" textLength="319.8584" x="210.647" y="253.0278">create merged nwctxt, analysis.txt, structuur.tex</text></g><g class="message" data-participant-1="u1" data-participant-2="nwconvpy"><polygon fill="#008000" points="279.3638,283.2266,289.3638,287.2266,279.3638,291.2266,283.3638,287.2266" style="stroke:#008000;stroke-width:1;"/><line style="stroke:#008000;stroke-width:1;" x1="23.9551" x2="285.3638" y1="287.2266" y2="287.2266"/><text fill="#FFFFFF" font-family="sans-serif" font-size="13" font-weight="bold" lengthAdjust="spacing" textLength="9.0454" x="30.9551" y="282.1606">7</text><text fill="#FFFFFF" font-family="sans-serif" font-size="13" lengthAdjust="spacing" textLength="62.1816" x="44.0005" y="282.1606">run script</text></g><g class="message" data-participant-1="nwconvpy" data-participant-2="nwconvexe"><polygon fill="#008000" points="373.3857,312.3594,383.3857,316.3594,373.3857,320.3594,377.3857,316.3594" style="stroke:#008000;stroke-width:1;"/><line style="stroke:#008000;stroke-width:1;" x1="291.3638" x2="379.3857" y1="316.3594" y2="316.3594"/><text fill="#FFFFFF" font-family="sans-serif" font-size="13" font-weight="bold" lengthAdjust="spacing" textLength="9.0454" x="298.3638" y="311.2935">8</text><text fill="#FFFFFF" font-family="sans-serif" font-size="13" lengthAdjust="spacing" textLength="22.3374" x="311.4092" y="311.2935">call</text></g><g class="message" data-participant-1="nwconvexe" data-participant-2="audio"><polygon fill="#008000" points="948.2896,341.4922,958.2896,345.4922,948.2896,349.4922,952.2896,345.4922" style="stroke:#008000;stroke-width:1;"/><line style="stroke:#008000;stroke-width:1;" x1="385.3857" x2="954.2896" y1="345.4922" y2="345.4922"/><text fill="#FFFFFF" font-family="sans-serif" font-size="13" font-weight="bold" lengthAdjust="spacing" textLength="9.0454" x="392.3857" y="340.4263">9</text><text fill="#FFFFFF" font-family="sans-serif" font-size="13" lengthAdjust="spacing" textLength="151.6201" x="405.4312" y="340.4263">convert .nwctxt to .mid</text></g><g class="message" data-participant-1="build" data-participant-2="audio"><polygon fill="#FFA500" points="971.2896,370.625,961.2896,374.625,971.2896,378.625,967.2896,374.625" style="stroke:#FFA500;stroke-width:1;"/><line style="stroke:#FFA500;stroke-width:1;" x1="965.2896" x2="1135.2026" y1="374.625" y2="374.625"/><text fill="#FFFFFF" font-family="sans-serif" font-size="13" font-weight="bold" lengthAdjust="spacing" textLength="18.0908" x="977.2896" y="369.5591">10</text><text fill="#FFFFFF" font-family="sans-serif" font-size="13" lengthAdjust="spacing" textLength="129.8223" x="999.3804" y="369.5591">use merged .nwctxt</text></g><g class="message" data-participant-1="audio" data-participant-2="audio"><line style="stroke:#FFA500;stroke-width:1;" x1="960.2896" x2="1002.2896" y1="403.7578" y2="403.7578"/><line style="stroke:#FFA500;stroke-width:1;" x1="1002.2896" x2="1002.2896" y1="403.7578" y2="416.7578"/><line style="stroke:#FFA500;stroke-width:1;" x1="961.2896" x2="1002.2896" y1="416.7578" y2="416.7578"/><polygon fill="#FFA500" points="971.2896,412.7578,961.2896,416.7578,971.2896,420.7578,967.2896,416.7578" style="stroke:#FFA500;stroke-width:1;"/><text fill="#FFFFFF" font-family="sans-serif" font-size="13" font-weight="bold" lengthAdjust="spacing" textLength="18.0908" x="967.2896" y="398.6919">11</text><text fill="#FFFFFF" font-family="sans-serif" font-size="13" lengthAdjust="spacing" textLength="92.4663" x="989.3804" y="398.6919">use soundfont</text></g><g class="message" data-participant-1="nwconvpy" data-participant-2="fluid"><polygon fill="#008000" points="459.6353,441.8906,469.6353,445.8906,459.6353,449.8906,463.6353,445.8906" style="stroke:#008000;stroke-width:1;"/><line style="stroke:#008000;stroke-width:1;" x1="291.3638" x2="465.6353" y1="445.8906" y2="445.8906"/><text fill="#FFFFFF" font-family="sans-serif" font-size="13" font-weight="bold" lengthAdjust="spacing" textLength="18.0908" x="298.3638" y="440.8247">12</text><text fill="#FFFFFF" font-family="sans-serif" font-size="13" lengthAdjust="spacing" textLength="22.3374" x="320.4546" y="440.8247">call</text></g><g class="message" data-participant-1="fluid" data-participant-2="audio"><polygon fill="#008000" points="948.2896,471.0234,958.2896,475.0234,948.2896,479.0234,952.2896,475.0234" style="stroke:#008000;stroke-width:1;"/><line style="stroke:#008000;stroke-width:1;" x1="471.6353" x2="954.2896" y1="475.0234" y2="475.0234"/><text fill="#FFFFFF" font-family="sans-serif" font-size="13" font-weight="bold" lengthAdjust="spacing" textLength="18.0908" x="478.6353" y="469.9575">13</text><text fill="#FFFFFF" font-family="sans-serif" font-size="13" lengthAdjust="spacing" textLength="129.873" x="500.7261" y="469.9575">convert .mid to.wav</text></g><g class="message" data-participant-1="audio" data-participant-2="audio"><line style="stroke:#FFA500;stroke-width:1;" x1="960.2896" x2="1002.2896" y1="504.1563" y2="504.1563"/><line style="stroke:#FFA500;stroke-width:1;" x1="1002.2896" x2="1002.2896" y1="504.1563" y2="517.1563"/><line style="stroke:#FFA500;stroke-width:1;" x1="961.2896" x2="1002.2896" y1="517.1563" y2="517.1563"/><polygon fill="#FFA500" points="971.2896,513.1563,961.2896,517.1563,971.2896,521.1563,967.2896,517.1563" style="stroke:#FFA500;stroke-width:1;"/><text fill="#FFFFFF" font-family="sans-serif" font-size="13" font-weight="bold" lengthAdjust="spacing" textLength="18.0908" x="967.2896" y="499.0903">14</text><text fill="#FFFFFF" font-family="sans-serif" font-size="13" lengthAdjust="spacing" textLength="93.7041" x="989.3804" y="499.0903">call Fluidsynth</text></g><g class="message" data-participant-1="nwconvpy" data-participant-2="ffmpeg"><polygon fill="#008000" points="538.3413,542.2891,548.3413,546.2891,538.3413,550.2891,542.3413,546.2891" style="stroke:#008000;stroke-width:1;"/><line style="stroke:#008000;stroke-width:1;" x1="291.3638" x2="544.3413" y1="546.2891" y2="546.2891"/><text fill="#FFFFFF" font-family="sans-serif" font-size="13" font-weight="bold" lengthAdjust="spacing" textLength="18.0908" x="298.3638" y="541.2231">15</text><text fill="#FFFFFF" font-family="sans-serif" font-size="13" lengthAdjust="spacing" textLength="22.3374" x="320.4546" y="541.2231">call</text></g><g class="message" data-participant-1="ffmpeg" data-participant-2="audio"><polygon fill="#008000" points="948.2896,571.4219,958.2896,575.4219,948.2896,579.4219,952.2896,575.4219" style="stroke:#008000;stroke-width:1;"/><line style="stroke:#008000;stroke-width:1;" x1="550.3413" x2="954.2896" y1="575.4219" y2="575.4219"/><text fill="#FFFFFF" font-family="sans-serif" font-size="13" font-weight="bold" lengthAdjust="spacing" textLength="18.0908" x="557.3413" y="570.356">16</text><text fill="#FFFFFF" font-family="sans-serif" font-size="13" lengthAdjust="spacing" textLength="132.7803" x="579.4321" y="570.356">convert .wav to .flac</text></g><g class="message" data-participant-1="audio" data-participant-2="audio"><line style="stroke:#FFA500;stroke-width:1;" x1="960.2896" x2="1002.2896" y1="604.5547" y2="604.5547"/><line style="stroke:#FFA500;stroke-width:1;" x1="1002.2896" x2="1002.2896" y1="604.5547" y2="617.5547"/><line style="stroke:#FFA500;stroke-width:1;" x1="961.2896" x2="1002.2896" y1="617.5547" y2="617.5547"/><polygon fill="#FFA500" points="971.2896,613.5547,961.2896,617.5547,971.2896,621.5547,967.2896,617.5547" style="stroke:#FFA500;stroke-width:1;"/><text fill="#FFFFFF" font-family="sans-serif" font-size="13" font-weight="bold" lengthAdjust="spacing" textLength="18.0908" x="967.2896" y="599.4888">17</text><text fill="#FFFFFF" font-family="sans-serif" font-size="13" lengthAdjust="spacing" textLength="75.6895" x="989.3804" y="599.4888">call Ffmpeg</text></g><g class="message" data-participant-1="u1" data-participant-2="repos"><polygon fill="#E7E7E7" points="851.6089,642.6875,861.6089,646.6875,851.6089,650.6875,855.6089,646.6875" style="stroke:#E7E7E7;stroke-width:1;"/><line style="stroke:#E7E7E7;stroke-width:1;" x1="23.9551" x2="857.6089" y1="646.6875" y2="646.6875"/><text fill="#FFFFFF" font-family="sans-serif" font-size="13" font-weight="bold" lengthAdjust="spacing" textLength="18.0908" x="30.9551" y="641.6216">18</text><text fill="#FFFFFF" font-family="sans-serif" font-size="13" lengthAdjust="spacing" textLength="189.5347" x="53.0459" y="641.6216">(manual) create liedtekst.tex</text></g><g class="message" data-participant-1="build" data-participant-2="repos"><polygon fill="#FFA500" points="874.6089,671.8203,864.6089,675.8203,874.6089,679.8203,870.6089,675.8203" style="stroke:#FFA500;stroke-width:1;"/><line style="stroke:#FFA500;stroke-width:1;" x1="868.6089" x2="1135.2026" y1="675.8203" y2="675.8203"/><text fill="#FFFFFF" font-family="sans-serif" font-size="13" font-weight="bold" lengthAdjust="spacing" textLength="18.0908" x="880.6089" y="670.7544">19</text><text fill="#FFFFFF" font-family="sans-serif" font-size="13" lengthAdjust="spacing" textLength="101.7974" x="902.6997" y="670.7544">use analysis.txt</text></g><g class="message" data-participant-1="u1" data-participant-2="ltgenerate"><polygon fill="#008000" points="621.7266,700.9531,631.7266,704.9531,621.7266,708.9531,625.7266,704.9531" style="stroke:#008000;stroke-width:1;"/><line style="stroke:#008000;stroke-width:1;" x1="23.9551" x2="627.7266" y1="704.9531" y2="704.9531"/><text fill="#FFFFFF" font-family="sans-serif" font-size="13" font-weight="bold" lengthAdjust="spacing" textLength="18.0908" x="30.9551" y="699.8872">20</text><text fill="#FFFFFF" font-family="sans-serif" font-size="13" lengthAdjust="spacing" textLength="62.1816" x="53.0459" y="699.8872">run script</text></g><g class="message" data-participant-1="ltgenerate" data-participant-2="dist"><polygon fill="#008000" points="1215.2852,730.0859,1225.2852,734.0859,1215.2852,738.0859,1219.2852,734.0859" style="stroke:#008000;stroke-width:1;"/><line style="stroke:#008000;stroke-width:1;" x1="633.7266" x2="1221.2852" y1="734.0859" y2="734.0859"/><text fill="#FFFFFF" font-family="sans-serif" font-size="13" font-weight="bold" lengthAdjust="spacing" textLength="18.0908" x="640.7266" y="729.02">21</text><text fill="#FFFFFF" font-family="sans-serif" font-size="13" lengthAdjust="spacing" textLength="277.0625" x="662.8174" y="729.02">render liedtekst .pdf, render structuur .pdf</text></g><g class="message" data-participant-1="u1" data-participant-2="ltupload"><polygon fill="#008000" points="711.6196,759.2188,721.6196,763.2188,711.6196,767.2188,715.6196,763.2188" style="stroke:#008000;stroke-width:1;"/><line style="stroke:#008000;stroke-width:1;" x1="23.9551" x2="717.6196" y1="763.2188" y2="763.2188"/><text fill="#FFFFFF" font-family="sans-serif" font-size="13" font-weight="bold" lengthAdjust="spacing" textLength="18.0908" x="30.9551" y="758.1528">22</text><text fill="#FFFFFF" font-family="sans-serif" font-size="13" lengthAdjust="spacing" textLength="62.1816" x="53.0459" y="758.1528">run script</text></g><g class="message" data-participant-1="ltupload" data-participant-2="pdrive"><polygon fill="#008000" points="1289.4932,788.3516,1299.4932,792.3516,1289.4932,796.3516,1293.4932,792.3516" style="stroke:#008000;stroke-width:1;"/><line style="stroke:#008000;stroke-width:1;" x1="723.6196" x2="1295.4932" y1="792.3516" y2="792.3516"/><text fill="#FFFFFF" font-family="sans-serif" font-size="13" font-weight="bold" lengthAdjust="spacing" textLength="18.0908" x="730.6196" y="787.2856">23</text><text fill="#FFFFFF" font-family="sans-serif" font-size="13" lengthAdjust="spacing" textLength="134.0498" x="752.7104" y="787.2856">upload pdf's to drive</text></g><g class="message" data-participant-1="u1" data-participant-2="tenacity"><polygon fill="#E7E7E7" points="790.6196,817.4844,800.6196,821.4844,790.6196,825.4844,794.6196,821.4844" style="stroke:#E7E7E7;stroke-width:1;"/><line style="stroke:#E7E7E7;stroke-width:1;" x1="23.9551" x2="796.6196" y1="821.4844" y2="821.4844"/><text fill="#FFFFFF" font-family="sans-serif" font-size="13" font-weight="bold" lengthAdjust="spacing" textLength="18.0908" x="30.9551" y="816.4185">24</text><text fill="#FFFFFF" font-family="sans-serif" font-size="13" lengthAdjust="spacing" textLength="57.8335" x="53.0459" y="816.4185">start GUI</text></g><g class="message" data-participant-1="audio" data-participant-2="tenacity"><polygon fill="#FFA500" points="813.6196,846.6172,803.6196,850.6172,813.6196,854.6172,809.6196,850.6172" style="stroke:#FFA500;stroke-width:1;"/><line style="stroke:#FFA500;stroke-width:1;" x1="807.6196" x2="959.2896" y1="850.6172" y2="850.6172"/><text fill="#FFFFFF" font-family="sans-serif" font-size="13" font-weight="bold" lengthAdjust="spacing" textLength="18.0908" x="819.6196" y="845.5513">25</text><text fill="#FFFFFF" font-family="sans-serif" font-size="13" lengthAdjust="spacing" textLength="74.4897" x="841.7104" y="845.5513">import .flac</text></g><g class="message" data-participant-1="audio" data-participant-2="tenacity"><polygon fill="#FFA500" points="813.6196,875.75,803.6196,879.75,813.6196,883.75,809.6196,879.75" style="stroke:#FFA500;stroke-width:1;"/><line style="stroke:#FFA500;stroke-width:1;" x1="807.6196" x2="959.2896" y1="879.75" y2="879.75"/><text fill="#FFFFFF" font-family="sans-serif" font-size="13" font-weight="bold" lengthAdjust="spacing" textLength="18.0908" x="819.6196" y="874.6841">26</text><text fill="#FFFFFF" font-family="sans-serif" font-size="13" lengthAdjust="spacing" textLength="111.5791" x="841.7104" y="874.6841">import labeltrack</text></g><g class="message" data-participant-1="u1" data-participant-2="tenacity"><polygon fill="#E7E7E7" points="790.6196,904.8828,800.6196,908.8828,790.6196,912.8828,794.6196,908.8828" style="stroke:#E7E7E7;stroke-width:1;"/><line style="stroke:#E7E7E7;stroke-width:1;" x1="23.9551" x2="796.6196" y1="908.8828" y2="908.8828"/><text fill="#FFFFFF" font-family="sans-serif" font-size="13" font-weight="bold" lengthAdjust="spacing" textLength="18.0908" x="30.9551" y="903.8169">27</text><text fill="#FFFFFF" font-family="sans-serif" font-size="13" lengthAdjust="spacing" textLength="165.3945" x="53.0459" y="903.8169">(manual) make recording</text></g><!--SRC=[ZPHDZziW48Rl_XMZz91TAR6qrwZQKzMgKbNrq3srFH0pzgB5OC6GRFvz-J3OJhpR-cHU7fYNcG7Ma3QGlYUB-PTPS0zLenKPBQEo-NvkVgiQNt6J2NLkRf2z5nf6dXmk6vYHNXukg_W9pIf_UeilDWhfXqlqitI2sukYvycpfziWNv5jFs2NgS14OGbzets72WqZ79rwK5BMRc0tICruGErcF9Aa92xPdwXO8-WoFnADMiKPiIEp6CbEK8ngSD1sESKS5nfQBJcQo4HXoHoTa7pEH679S65fZeJnWlZnoOWJXgc1Xx-gOewqSlqHJUKUOFyOwW47iCGCmPUdhwCQJH_WhcVACNaFZK6VDkYT906rNqEljBKH_lMXCuZgpsDf6h-VSGfiOyH0LRM5r69LcP-j6GEvWOVzfK1U4xwkeYbhX-n5iYDACgnvgRsPrHKnPML1ZwP33idy3fXYycA5hUF8ad4DEMTY-EGvzFdQ4K_NHopg3Ubx93XcKbQJS7scGmwMCmkaeUvzuwScyBmsJ7KuBN2sd6TSKwNqlC5QxHHlVIElUestBFjCWxMyPvFUcNTOdzdfxQ1XAvWkzNhOU75Bt3HwBx2F65FJIjRyAtHw57mXvSM8nhxVrw7l25yinUhVPZrtgS_al6sgg-wO7fXbVypq6HrkgyTG-UixEO1wuEqkowKjenoEanubk1CAw1b18JFGEd86TtdkB7m2ZjvgItuBWuqs_Fx6wWXV6HtL6PbU3ZZatRsFhGrb65-KxHXXp71-31UFIX4_bgJkItb5F-XGtL1L-2zqklgtGKjfU_Q2epMXkhy0]--></g></svg>